<svg width="72" height="72" viewBox="0 0 72 72" fill="none" xmlns="http://www.w3.org/2000/svg">
<g id="statistics/1">
<path id="vector" fill-rule="evenodd" clip-rule="evenodd" d="M6.94688 22.8507C4.62656 25.4949 2.30625 28.1529 0 30.8109C0 31.0878 0 31.3647 0.0140629 31.6692C0.159711 31.7648 0.300331 31.8687 0.440552 31.9722L0.440563 31.9722C0.706493 32.1686 0.970987 32.3639 1.26562 32.4999C2.88281 33.2613 4.52812 34.0088 6.17344 34.7149C6.6375 34.9225 6.77812 35.1579 6.77812 35.6424C6.76406 38.342 6.76406 41.0415 6.76406 43.7411C6.76406 46.4407 6.76406 49.1402 6.75 51.8398C6.73594 52.6566 7.03125 53.1411 7.79063 53.501C12.3889 55.6606 16.9871 57.834 21.5854 60.0074L21.5858 60.0076L21.586 60.0077C26.1844 62.1812 30.7828 64.3547 35.3812 66.5143C35.7188 66.6666 36.225 66.5835 36.6328 66.5143C36.8391 66.4774 37.0328 66.3666 37.2266 66.2559C37.3234 66.2005 37.4203 66.1451 37.5187 66.099L37.5217 66.0976C46.352 61.9172 55.1822 57.7368 64.0266 53.5841C64.9406 53.1549 65.2781 52.615 65.2641 51.6183C65.2377 48.3131 65.2388 45.0134 65.2399 41.7123C65.2406 39.7315 65.2412 37.7502 65.2359 35.767C65.2359 35.2271 65.3625 34.9225 65.9109 34.6872C67.5422 33.995 69.1594 33.2613 70.7625 32.4999C71.0607 32.3531 71.328 32.1516 71.5931 31.9518C71.728 31.8501 71.8624 31.7488 72 31.6554V30.8248L71.9998 30.8245L71.9997 30.8244C69.7076 28.1803 67.4155 25.5363 65.1094 22.906C64.9125 22.6707 64.6031 22.4907 64.3219 22.3661C62.1844 21.4247 60.0469 20.4834 57.8953 19.5835C57.4734 19.4035 57.3609 19.182 57.3609 18.7529C57.368 17.7145 57.368 16.6762 57.368 15.6378C57.368 14.5996 57.368 13.5614 57.375 12.5231C57.3891 11.8863 57.0938 11.4987 56.4891 11.291L53.6572 10.3189C47.2997 8.13679 40.9344 5.95194 34.5797 3.7461C33.9891 3.53845 33.4688 3.5523 32.8922 3.78764C26.7609 6.29339 20.6156 8.78528 14.4703 11.2495C13.7812 11.5264 13.4719 11.9002 13.4859 12.6339C13.5028 13.9629 13.5045 15.2919 13.5062 16.6209C13.5073 17.5069 13.5084 18.3929 13.5141 19.2789C13.5141 19.6804 13.4156 19.8881 13.0219 20.0542C11.3942 20.725 9.78918 21.4292 8.17632 22.1368L7.62187 22.38C7.36875 22.4907 7.11563 22.6569 6.94688 22.8507ZM62.6309 36.1742C62.7413 36.1276 62.8623 36.0764 63 36.0162C63 36.9714 63 37.8298 62.9859 38.6604C62.9859 42.772 62.9859 46.8698 63 50.9815C63.0141 51.4106 62.8734 51.646 62.4797 51.8259C58.3523 53.771 54.2283 55.7196 50.1044 57.6682L50.093 57.6736C45.9731 59.6203 41.8531 61.5669 37.7297 63.5102C37.6514 63.5487 37.5732 63.5842 37.4893 63.6223L37.4891 63.6224C37.3922 63.6664 37.2878 63.7138 37.1672 63.7732V37.5529C37.9425 38.4131 38.6424 39.199 39.3424 39.985L39.6422 40.3217C40.1695 40.91 40.6933 41.5018 41.2171 42.0936L41.2176 42.0941L41.2176 42.0942C41.7413 42.6858 42.265 43.2775 42.7922 43.8657C43.4531 44.5994 43.7625 44.6686 44.6906 44.2533L62.1141 36.4038C62.2754 36.3244 62.4368 36.2562 62.6309 36.1742ZM9.01198 36.2075C9.01674 36.1523 9.02243 36.0864 9.02812 36.0024C10.7578 36.7776 12.3891 37.5114 14.0062 38.2589C16.193 39.2488 18.3832 40.2386 20.5734 41.2284C22.7637 42.2183 24.9539 43.2081 27.1406 44.1979C28.2656 44.7102 28.5187 44.6548 29.3203 43.7411C31.0077 41.8307 32.7092 39.9204 34.4107 38.01L34.4108 38.0099L34.4109 38.0098L34.4109 38.0097C34.4538 37.9622 34.4967 37.9167 34.5435 37.8671L34.544 37.8666L34.544 37.8666C34.6198 37.7862 34.7059 37.6949 34.8187 37.5667V63.7317C34.7063 63.6832 34.5939 63.6383 34.4814 63.5933L34.4813 63.5933L34.4813 63.5932C34.3688 63.5482 34.2563 63.5033 34.1438 63.4548C30.0515 61.5235 25.9592 59.5888 21.867 57.6541C17.7749 55.7195 13.6827 53.7848 9.59062 51.8536C9.25312 51.7013 8.98594 51.5767 8.98594 51.0784C9.00703 47.4128 9.00439 43.7394 9.00176 40.07V40.0699V40.0699C9.00088 38.8473 9 37.6251 9 36.4038C9 36.3462 9.00498 36.2885 9.01198 36.2075ZM68.8997 30.6856C68.9338 30.7338 68.9725 30.7886 69.0188 30.8524C66.0656 32.1815 63.1969 33.4828 60.3281 34.8118L57.8956 35.9077C53.5421 37.8688 49.1817 39.8329 44.8312 41.8168C44.3391 42.0383 44.0719 42.0106 43.7203 41.5953C42.4158 40.0851 41.0804 38.5901 39.7484 37.0991L39.748 37.0986L39.7479 37.0985C39.2852 36.5805 38.8229 36.063 38.3625 35.5455C38.294 35.4631 38.2255 35.3766 38.1503 35.2817L38.1502 35.2816C38.0865 35.2012 38.018 35.1147 37.9406 35.0195C39.459 34.4105 40.9352 33.8292 42.4114 33.2479L42.4125 33.2474C44.6414 32.3683 46.8668 31.4927 49.0922 30.6171C51.3176 29.7415 53.543 28.8658 55.7719 27.9868C56.3241 27.7687 56.877 27.5506 57.4303 27.3324L57.4341 27.3309L57.4346 27.3307L57.4348 27.3306C59.374 26.5658 61.3178 25.7992 63.2531 25.0242C63.6609 24.858 63.9 24.8996 64.1953 25.2457C65.1773 26.3948 66.1776 27.5379 67.1761 28.679L67.1783 28.6815C67.6948 29.2717 68.2107 29.8613 68.7234 30.451C68.78 30.516 68.8303 30.5872 68.8997 30.6855L68.8997 30.6856ZM4.99468 31.7381C4.32439 31.4387 3.6452 31.1354 2.95312 30.8248C3.25246 30.4822 3.54884 30.1425 3.843 29.8053C5.24867 28.1943 6.60366 26.6413 7.9875 25.1072C8.11406 24.9549 8.53594 24.9411 8.76094 25.0242C12.1773 26.3479 15.5867 27.6925 18.9989 29.0382L19.0012 29.0391L19.0037 29.0401C20.4075 29.5937 21.8117 30.1475 23.2172 30.7002L33.3 34.6872C33.4523 34.7401 33.6046 34.8042 33.775 34.8761L33.7752 34.8761L33.776 34.8765C33.8729 34.9173 33.9756 34.9605 34.0875 35.0056C33.8385 35.2945 33.6007 35.5613 33.3671 35.8234C33.2313 35.9758 33.0969 36.1266 32.9625 36.2792C32.3446 36.979 31.7268 37.6746 31.1098 38.3692L31.1097 38.3693L31.1096 38.3694C30.1397 39.4613 29.1719 40.5508 28.2094 41.6507C27.9703 41.9276 27.7875 42.0521 27.3937 41.8722C21.0938 39.0065 14.7937 36.1546 8.47969 33.3028C7.33105 32.7816 6.1767 32.266 4.99468 31.7381ZM15.7734 14.2673C15.783 14.2268 15.7946 14.1781 15.8063 14.1152C16.3612 14.3557 16.9118 14.5937 17.4589 14.8301L17.459 14.8301L17.459 14.8301C19.1164 15.5464 20.7418 16.2489 22.3594 16.967C25.2281 18.1991 28.0969 19.4312 30.9656 20.691C31.1766 20.7879 31.4578 21.0787 31.4578 21.2863C31.4915 23.9963 31.4893 26.6974 31.4871 29.4533V29.4534V29.4536V29.4537C31.4865 30.1469 31.4859 30.8435 31.4859 31.5446C31.3769 31.5088 31.2808 31.4808 31.1922 31.4548L31.1922 31.4548L31.1922 31.4548C31.0752 31.4206 30.9712 31.3902 30.8672 31.3508C28.4502 30.3963 26.0298 29.4418 23.6093 28.4873L23.6043 28.4853L23.6038 28.4851C21.1816 27.5299 18.7593 26.5747 16.3406 25.6194C16.3083 25.605 16.2761 25.5912 16.2443 25.5777L16.2443 25.5777C15.9727 25.462 15.7359 25.3611 15.7359 24.9273C15.757 22.2999 15.7544 19.6649 15.7518 17.0337V17.0337V17.0337C15.7509 16.1572 15.75 15.2811 15.75 14.4059C15.75 14.3653 15.7597 14.3247 15.7734 14.2673ZM54.9342 14.0251C54.9928 14.0161 55.0559 14.0063 55.125 13.9906C55.125 17.853 55.125 21.6186 55.1109 25.3703C55.1109 25.5502 54.9844 25.8548 54.8438 25.9102C52.286 26.9389 49.7211 27.9469 47.1343 28.9635L47.1334 28.9638L47.1315 28.9646L47.1292 28.9655C46.0627 29.3847 44.9923 29.8053 43.9172 30.2295C43.9113 30.1312 43.903 30.0425 43.8953 29.9605L43.8953 29.9604L43.8953 29.9603V29.9603V29.9603C43.8845 29.8461 43.875 29.7447 43.875 29.648V18.2268C43.875 17.8669 43.8891 17.6177 44.3531 17.4654C47.3661 16.4969 50.3682 15.5072 53.3784 14.5148L54.675 14.0875C54.7537 14.0531 54.8378 14.04 54.9342 14.0251ZM52.4788 12.2828C52.5385 12.3083 52.6153 12.3412 52.7203 12.3847C50.7516 13.0354 48.9656 13.6168 47.1797 14.1844L46.6909 14.3467L46.6909 14.3467C45.563 14.7214 44.4431 15.0933 43.3125 15.4442C43.0594 15.5273 42.7359 15.5688 42.5109 15.4719C38.969 13.9681 35.4335 12.4452 31.8737 10.9118L31.8732 10.9116L31.8729 10.9114C30.1895 10.1863 28.5007 9.45881 26.8031 8.7299C26.8392 8.70806 26.873 8.6873 26.9052 8.66761C27.0359 8.58747 27.1375 8.52517 27.2391 8.48072C29.2641 7.65008 31.3031 6.81945 33.3422 6.01651C33.5953 5.9196 33.9469 5.89191 34.2 5.97498C38.7544 7.53221 43.3088 9.10523 47.8571 10.6762C49.3336 11.1861 50.8094 11.6958 52.2844 12.2047C52.3356 12.2215 52.3868 12.2434 52.4788 12.2828ZM41.4131 18.4642C41.4677 18.4503 41.5242 18.436 41.5828 18.4206C41.5861 18.4592 41.5901 18.4963 41.594 18.5322L41.594 18.5324L41.594 18.5325C41.6069 18.6512 41.6185 18.7574 41.5969 18.8636C41.5969 22.7815 41.5969 26.6993 41.6109 30.6171C41.625 31.0324 41.4703 31.2262 41.0906 31.3647C39.6562 31.9046 38.2219 32.4583 36.8016 33.0536C36.2531 33.289 35.775 33.289 35.2125 33.0536L35.1242 33.0157C33.7635 32.4311 33.75 32.4253 33.75 30.8663C33.75 27.7514 33.75 24.6504 33.7359 21.5355C33.7359 21.1063 33.8484 20.8987 34.2984 20.7602C36.0294 20.2171 37.7521 19.6493 39.4729 19.0822L39.4734 19.082C39.9892 18.912 40.5047 18.7421 41.0203 18.5729C41.1421 18.5329 41.2713 18.5002 41.4131 18.4642ZM39.0503 16.4535C39.194 16.5234 39.3626 16.6054 39.5859 16.704L32.9625 18.8775C32.7797 18.9329 32.4984 18.8775 32.3016 18.7944C28.8912 17.3415 25.488 15.8747 22.0868 14.4088L22.0852 14.4082C20.6904 13.807 19.296 13.206 17.9016 12.6062C17.8313 12.5647 17.7609 12.5231 17.5641 12.4262C18.0262 12.2384 18.4846 12.0619 18.9372 11.8876L18.9372 11.8876L18.9372 11.8876C19.9856 11.4838 21.003 11.092 21.9656 10.5988C23.2734 9.92048 24.3844 10.0589 25.6922 10.6542C28.866 12.0892 32.0701 13.4569 35.2712 14.8232L35.2716 14.8234L35.2719 14.8235C36.4249 15.3156 37.5775 15.8076 38.7281 16.3025C38.8299 16.3463 38.9316 16.3958 39.0503 16.4535ZM59.3086 24.1728C58.6828 24.422 58.057 24.6711 57.4031 24.9273V21.7708C58.6688 22.3108 59.8781 22.8368 61.2141 23.4183C60.5601 23.6744 59.9344 23.9236 59.3086 24.1728ZM13.0002 22.4688L13.4859 22.2554V24.4566C13.1035 24.3085 12.7267 24.1603 12.3406 24.0086L12.3405 24.0085C11.8604 23.8198 11.3659 23.6254 10.8281 23.4183C11.589 23.0891 12.2743 22.7879 13.0002 22.4688ZM48.2523 51.555C48.2986 51.4859 48.3391 51.4254 48.375 51.3829C48.3469 50.4 47.6016 49.8463 46.8844 50.1231C44.4823 51.1064 42.1029 52.1232 39.7155 53.1434L38.9109 53.4872C38.3203 53.7503 38.1094 54.3317 38.3344 54.8716C38.5734 55.4392 39.1641 55.7438 39.7688 55.4946C42.4125 54.4009 45.0563 53.2934 47.6719 52.1444C47.9336 52.031 48.1174 51.7565 48.2523 51.555ZM38.8906 59.8562L38.8906 59.8562C38.6554 59.6416 38.4216 59.4283 38.3062 59.1632C38.0953 58.6372 38.3625 58.1665 38.8969 57.9173C39.6051 57.5939 40.3284 57.2927 41.0502 56.9921L41.0503 56.992C41.3173 56.8808 41.5842 56.7697 41.85 56.6575L42.5706 56.3496C43.9161 55.7745 45.2546 55.2023 46.6031 54.6501C47.3625 54.3317 47.9812 54.5394 48.2484 55.1624C48.5156 55.7715 48.2484 56.3529 47.475 56.6852C45.5485 57.5056 43.6136 58.3179 41.6832 59.1282L41.6807 59.1293C41.1038 59.3714 40.5273 59.6134 39.9516 59.8554C39.8039 59.9177 39.6563 59.9567 39.5086 59.9956C39.4594 60.0086 39.4102 60.0216 39.3609 60.0354C39.3302 60.0757 39.292 60.1014 39.2518 60.1284C39.2368 60.1385 39.2215 60.1487 39.2062 60.16C39.1084 60.055 38.9994 59.9555 38.8906 59.8562ZM32.6281 54.8162C32.6266 54.5394 32.625 54.2625 32.625 53.9856C32.625 53.7708 32.6241 53.556 32.6232 53.3414C32.6206 52.6986 32.618 52.0576 32.6391 51.4245C32.6531 50.7323 32.3719 50.2893 31.7109 50.0401C30.8997 49.727 30.0916 49.4081 29.2822 49.0887C28.3377 48.716 27.3917 48.3427 26.4375 47.9773C25.4672 47.6036 24.7781 48.1019 24.7641 49.1402C24.757 50.0055 24.757 50.8707 24.757 51.7359C24.757 52.6012 24.757 53.4664 24.75 54.3317C24.75 54.9685 25.0453 55.3561 25.6359 55.5915C26.2218 55.8222 26.8077 56.0544 27.3936 56.2867C28.5655 56.7513 29.7374 57.2158 30.9094 57.6681C31.9219 58.0557 32.6109 57.5712 32.625 56.4775C32.6344 55.9237 32.6312 55.37 32.6281 54.8162ZM30.3768 54.3067C30.3759 54.5505 30.375 54.7984 30.375 55.0516C30.0818 54.9354 29.7927 54.8222 29.5072 54.7104C28.7383 54.4094 27.9953 54.1186 27.2672 53.8056C27.1406 53.7503 27.0141 53.5426 27.0141 53.4042C26.9931 52.7226 26.9956 52.041 26.9982 51.3249C26.9991 51.0811 27 50.8332 27 50.58C27.1938 50.6568 27.3859 50.7328 27.5763 50.8081C28.4495 51.1534 29.2881 51.485 30.1078 51.826C30.2344 51.8813 30.3609 52.089 30.3609 52.2274C30.3819 52.909 30.3794 53.5906 30.3768 54.3067Z" fill="#F6CAC1"/>
</g>
</svg>
