<svg width="74" height="74" viewBox="0 0 74 74" fill="none" xmlns="http://www.w3.org/2000/svg">
<g id="statistics/2">
<g id="vector">
<path fill-rule="evenodd" clip-rule="evenodd" d="M65.5818 41.4482C68.4182 39.4484 71.9091 40.7816 73 44.3367V46.7809C73 46.7809 72.7818 47.0031 72.7818 47.2253L72.1273 48.5585C71.0364 50.5582 69.7273 51.8914 67.9818 53.2246C66.4545 54.5578 64.9273 55.4465 62.9636 53.8912V55.0022V56.7797C62.9636 57.0019 62.9636 57.0019 63.1818 57.2241C64.2727 58.1129 64.7091 59.2239 64.7091 60.5571V61.2236V61.668H65.3636C67.9818 61.668 69.7273 63.6678 69.5091 66.3342C69.5091 67.0007 69.5091 67.8895 69.2909 68.5561V69.2227C69.0727 71.6669 67.5455 73 64.9273 73C64.4909 73 64.0546 72.9445 63.6183 72.8889L63.6182 72.8889C63.1818 72.8334 62.7455 72.7778 62.3091 72.7778C61.2182 72.5556 60.3455 72.5556 59.2545 72.5556H27.6182H17.1455H16.9273H16.2727C13.6545 72.5556 11.6909 70.3337 12.1273 67.6673C12.1273 67.4451 12.1818 67.2785 12.2364 67.1118C12.2909 66.9452 12.3455 66.7785 12.3455 66.5563C12.5636 66.3341 12.5636 66.112 12.5636 65.8898C12.308 65.8898 12.1273 65.8135 11.9775 65.7503C11.8717 65.7057 11.7813 65.6676 11.6909 65.6676C11.3636 65.5565 11.0909 65.4454 10.8182 65.3343C10.5455 65.2232 10.2727 65.1121 9.94545 65.001C8.41818 64.3344 6.89091 63.4456 5.8 62.1124C5.58182 61.8902 5.36364 61.4458 5.58182 61.0014C5.58182 60.557 6.23636 60.3349 6.45455 60.3349C6.89091 60.3349 7.10909 60.557 7.10909 61.0014C8.63636 62.3346 10.1636 63.2234 12.1273 63.6678C12.5636 63.89 13 63.6678 13.2182 63.0012C14.7455 59.4461 16.9273 56.5575 19.7636 54.3356C19.9818 54.2245 20.2 54.0578 20.4182 53.8912C20.6364 53.7245 20.8545 53.5579 21.0727 53.4468L21.5091 53.0024C21.5091 52.7802 21.2909 52.7802 21.2909 52.7802C21.1818 52.7802 21.1273 52.7246 21.0727 52.6691C21.0182 52.6135 20.9636 52.558 20.8545 52.558C15.6182 49.8916 11.4727 46.1143 9.07273 40.3372C8.63636 39.004 8.2 38.3374 6.89091 38.3374C6.45455 38.3374 6.0182 38.1152 5.58184 37.8931L5.58182 37.893C5.47273 37.893 5.36364 37.8375 5.25455 37.7819C5.14545 37.7264 5.03636 37.6708 4.92727 37.6708C4.81818 37.6708 4.76364 37.6153 4.70909 37.5598C4.65455 37.5042 4.6 37.4487 4.49091 37.4487C2.96364 40.5594 3.83636 44.3367 6.89091 46.5587C7.98182 47.2253 7.98182 47.8919 6.67273 48.3363C4.92727 50.5582 4.05455 53.2246 4.70909 56.1131C4.70909 56.7797 4.49091 57.2241 3.83636 57.4463C3.18182 57.6685 2.74545 57.2241 2.52727 56.5575C2.30909 55.0021 2.30909 53.669 2.52727 52.1136C2.74545 50.336 3.4 48.7807 4.49091 47.4475C2.96364 46.1143 1.87273 44.5589 1.43636 42.5592C1.43636 42.337 1.38182 42.1148 1.32727 41.8926C1.27273 41.6704 1.21818 41.4482 1.21818 41.226V40.7816V39.4484C1.21818 39.004 1.43636 38.3374 1.65455 37.893C1.76364 37.5598 1.87273 37.1709 1.98182 36.7821C2.09091 36.3932 2.2 36.0044 2.30909 35.6711V35.2267L1.65455 33.8935L1 32.5603V30.7828C1.21818 30.5606 1.43636 30.1162 1.65454 29.6718L1.65455 29.6718C1.76364 29.3385 1.92727 29.0607 2.09091 28.783C2.25455 28.5053 2.41818 28.2275 2.52727 27.8942C2.74545 27.672 2.74545 27.4498 2.74545 27.2276C3.4 16.1178 9.50909 8.56316 19.1091 4.11923C29.8 -0.76908 40.2727 0.119705 50.3091 6.56339C50.4182 6.67449 50.5273 6.73004 50.6364 6.78559C50.7455 6.84114 50.8546 6.89669 50.9636 7.00778C51.4 7.45218 51.6182 8.11876 51.1818 8.56316C50.7455 9.00755 50.0909 9.00755 49.6545 8.78535C49.5455 8.78535 49.4909 8.7298 49.4364 8.67425C49.3818 8.61871 49.3273 8.56316 49.2182 8.56316C49.1091 8.56316 49.0546 8.50761 49 8.45206C48.9455 8.39651 48.8909 8.34096 48.7818 8.34096C43.1091 4.78582 37.2182 3.23045 30.6727 3.67484C24.1273 3.89704 18.4545 5.8968 13.4364 10.1185C9.07273 13.8959 6.01818 18.562 4.92727 24.5613C4.92727 24.8946 4.87273 25.1723 4.81818 25.4501C4.76364 25.7278 4.70909 26.0056 4.70909 26.3388V27.2276C4.92727 27.2276 5.09091 27.1721 5.25455 27.1165C5.41818 27.061 5.58182 27.0054 5.8 27.0054C6.52299 27.0054 7.09624 26.8529 7.76785 26.6743L7.76789 26.6743L7.76813 26.6742C7.90714 26.6372 8.05036 26.5991 8.2 26.561C14.7455 25.0057 20.8545 22.5615 26.5273 18.7842C27.8364 17.8954 28.9273 17.0066 30.2364 15.8956C30.4545 15.7845 30.6182 15.6179 30.7818 15.4512C30.9455 15.2846 31.1091 15.1179 31.3273 15.0068C31.9818 14.5625 32.4182 14.3403 33.0727 15.0068C37.2182 19.0064 42.0182 21.6727 47.2545 23.8947C50.9636 25.4501 54.8909 26.561 58.8182 27.2276H59.4727H59.9091C59.9091 25.4501 59.4727 23.6725 59.0364 21.8949C57.9455 18.3398 56.2 15.229 53.5818 12.5627L53.3636 12.3405C52.9273 11.8961 52.9273 11.2295 53.3636 10.7851C53.8 10.3407 54.4545 10.3407 54.8909 10.7851C59.2545 15.229 61.8727 20.5617 62.3091 27.0054C62.3766 27.2118 62.4233 27.4182 62.4684 27.6179C62.5691 28.0635 62.6624 28.4762 62.9636 28.783C64.4909 30.7828 64.4909 33.4491 63.1818 35.4489C62.9636 35.8933 62.9636 36.1155 63.1818 36.5599C63.8364 37.893 64.2727 39.2262 64.2727 40.7816C64.2727 41.1211 64.5274 41.3309 64.7449 41.5101C64.8121 41.5655 64.8758 41.6179 64.9273 41.6704C65.1455 41.6704 65.3636 41.6704 65.5818 41.4482ZM4.27273 33.8935C5.14545 35.4489 6.23636 36.1155 7.76364 36.3377H7.98182V29.2274H7.54545C6.67273 29.2274 5.8 29.2274 5.14545 29.4496C5.03636 29.5607 4.92727 29.6162 4.81818 29.6718C4.70909 29.7273 4.6 29.7829 4.49091 29.894C3.61818 31.2272 3.61818 32.5603 4.27273 33.8935ZM58.8182 29.2274H58.3818V36.1155C59.4727 35.8933 60.5636 35.4489 61.4364 34.3379C62.5273 33.0047 62.5273 31.2272 61.6545 29.894C61.6545 29.6718 61.4364 29.4496 61.2182 29.4496C60.7818 29.4496 60.4 29.394 60.0182 29.3385C59.6364 29.2829 59.2545 29.2274 58.8182 29.2274ZM9.94545 35.2267C11.0364 41.226 14.3091 45.6699 19.3273 49.0029C25 52.7802 31.1091 53.8912 37.6545 52.558C43.3273 51.6692 48.1273 49.225 51.8364 44.7811C55.5455 40.5594 57.0727 35.4489 56.4182 29.6718C56.2 29.0052 55.9818 28.783 55.3273 28.5608C48.7818 27.0054 42.6727 24.3391 37.2182 20.5617C36.7819 20.2285 36.2911 19.8397 35.8002 19.451L35.8001 19.4509L35.8 19.4508L35.8 19.4507C35.3091 19.0619 34.8182 18.6731 34.3818 18.3398C34.1636 18.1176 33.9455 17.9509 33.7273 17.7843C33.5091 17.6176 33.2909 17.451 33.0727 17.2288C32.8545 17.451 32.6364 17.6177 32.4182 17.7843C32.2 17.9509 31.9818 18.1176 31.7636 18.3398C31.5956 18.4682 31.4194 18.6048 31.2367 18.7464C30.4707 19.3405 29.5899 20.0235 28.7091 20.5617C23.0364 24.3391 16.9273 26.7832 10.6 28.5608C10.1636 28.783 9.94545 29.0052 9.94545 29.4496C9.72727 31.2272 9.50909 33.2269 9.94545 35.2267ZM43.5455 67.0007V70.3337V70.5559H57.7273C56.6364 68.3339 56.8545 65.8898 57.0727 63.4456H56.2H53.8C51.6182 63.4456 50.0909 62.5568 48.7818 60.7793C47.0364 58.1129 44.8545 56.1131 42.0182 54.5578C41.8 54.3356 41.3636 54.3356 41.1455 54.3356C35.6909 55.8909 30.2364 55.8909 24.7818 54.3356C24.5636 54.3356 24.1273 54.3356 23.9091 54.5578C18.6727 57.6685 15.6182 62.1124 14.3091 67.8895C14.0909 69.2227 14.9636 70.5559 16.4909 70.5559H19.7636H20.8545H22.3818V69.6671V68.7783V66.5563C22.3818 65.8898 22.8182 65.4454 23.4727 65.4454C24.1273 65.4454 24.5636 65.8898 24.5636 66.5563V67.4451V67.6673V70.5559H24.7818H25H40.9273C41.3636 70.5559 41.5818 70.3337 41.5818 69.8893V66.3342C41.5818 65.6676 41.8 65.2232 42.4545 65.2232C43.1091 65.2232 43.3273 65.4454 43.5455 66.112V66.7785V67.0007ZM57.7273 59.6683L58.3818 57.6685C58.8182 56.7797 59.9091 56.3353 61.2182 56.1131V55.2243C61.2182 54.8911 61.1636 54.5022 61.1091 54.1134C61.0545 53.7245 61 53.3357 61 53.0024C61 52.1136 60.5636 51.2248 59.9091 50.5582C59.0364 49.4472 58.3818 48.3363 57.9455 47.2253C56.8545 44.1145 58.8182 41.226 61.8727 40.7816C62.0909 40.5594 62.3091 40.5594 62.5273 40.5594C62.5273 39.8928 62.3091 39.004 62.0909 38.3374C62.0909 38.2263 62.0364 38.0597 61.9818 37.893C61.9273 37.7264 61.8727 37.5598 61.8727 37.4487C61.7636 37.4487 61.6545 37.5042 61.5455 37.5598C61.4364 37.6153 61.3273 37.6708 61.2182 37.6708C61 37.7819 60.7818 37.8375 60.5636 37.893C60.3455 37.9486 60.1273 38.0041 59.9091 38.1152C59.8 38.1152 59.6364 38.1708 59.4727 38.2263C59.3091 38.2819 59.1455 38.3374 59.0364 38.3374C58.9273 38.3374 58.7636 38.393 58.6 38.4485C58.4364 38.5041 58.2727 38.5596 58.1636 38.5596C57.9455 38.5596 57.5091 38.7818 57.5091 39.004C55.1091 45.2255 50.9636 49.6694 45.0727 52.558C44.9636 52.558 44.9091 52.6135 44.8545 52.6691C44.8 52.7246 44.7455 52.7802 44.6364 52.7802C44.6364 53.0024 44.4182 53.0024 44.4182 53.0024C47.0364 54.5578 49.2182 57.0019 50.9636 59.4461C51.4 59.8905 52.2727 60.5571 52.9273 60.5571H56.2H57.5091C57.5091 60.446 57.5636 60.2793 57.6182 60.1127L57.6182 60.1126L57.6182 60.1126C57.6727 59.946 57.7273 59.7793 57.7273 59.6683ZM64.9273 63.2234H64.2727C63.1818 63.2234 62.9636 63.0012 62.9636 61.8902V61.0014V59.6683C62.9636 58.7795 62.3091 58.1129 61.4364 58.1129C60.7818 58.1129 60.1273 58.5573 59.9091 59.4461C59.9091 59.6682 59.8546 59.946 59.8 60.2237L59.8 60.2238L59.8 60.2238C59.7455 60.5015 59.6909 60.7793 59.6909 61.0014C59.4727 61.668 59.4727 62.1124 59.4727 62.779C59.2546 64.3344 59.2545 65.6676 59.2545 67.2229C59.2545 69.4449 60.5636 70.3337 62.5273 70.5559H63.6182H63.8364H64.2727H65.3636C66.2364 70.3337 66.8909 69.8893 67.1091 69.0005C67.3273 67.8895 67.5455 66.5564 67.5455 65.2232C67.5455 64.1122 66.8909 63.2234 65.8 63.2234H64.9273ZM65.5818 51.8914C67.9818 50.5582 69.7273 49.0029 70.8182 46.5587C71.4727 45.2255 70.8182 43.8923 69.7273 43.0036C68.4182 42.337 67.1091 42.7814 66.2364 43.8923C65.5818 44.5589 64.9273 44.5589 64.2727 43.8923L64.0546 43.6701C63.4 42.7814 62.3091 42.5592 61.2182 43.0036C60.1273 43.448 59.4727 44.3367 59.4727 45.4477C59.4727 45.5588 59.5273 45.6699 59.5818 45.781C59.6364 45.8921 59.6909 46.0032 59.6909 46.1143C59.6909 46.3365 59.9091 46.7809 60.1273 47.2253C61.2182 49.2251 62.9636 50.7804 64.9273 51.8914H65.5818ZM19.9818 32.3381C20.2 30.7828 21.5091 29.4496 23.2546 29.4496C25 29.4496 26.5273 30.7828 26.3091 32.1159C26.3091 33.0047 26.0909 33.4491 25.4364 33.4491C25 33.6713 24.5637 33.2269 24.3455 32.5603C24.1273 31.6715 23.6909 31.2271 23.0364 31.4493C22.6 31.6715 22.1637 31.8937 22.1637 32.5603C21.9455 33.4491 21.5091 33.6713 20.8546 33.6713C20.2 33.6713 19.9818 33.0047 19.9818 32.3381ZM38.5273 34.5602C38.3091 32.3382 37.2182 31.2272 35.0364 30.7828C34.6 30.7828 34.1636 30.7828 33.7273 30.5606H33.0727H32.2H30.8909C28.4909 30.7828 27.1818 32.3382 27.4 34.7824C27.4 35.449 27.4 35.8933 27.6182 36.5599C28.4909 39.8929 31.7636 41.6704 34.6 40.5595C37.2182 39.8929 38.7455 37.2265 38.5273 34.5602ZM32.2 38.7819C30.8909 38.3375 30.0182 37.2265 29.5818 35.8933C29.5818 35.6711 29.5818 35.449 29.3636 35.0046C29.3636 33.6714 29.8 33.0048 31.1091 32.7826H31.9818H33.0727H33.7273C33.9234 32.7826 34.1195 32.8275 34.3355 32.8769C34.6 32.9375 34.8942 33.0048 35.2545 33.0048C35.9091 33.227 36.1273 33.6714 36.3455 34.1158C36.5636 35.449 36.1273 36.5599 35.2545 37.6709C34.6 38.7819 33.5091 39.2263 32.2 38.7819ZM41.5818 32.7825C41.5818 33.4491 41.1455 33.6713 40.4909 33.6713C39.8364 33.6713 39.6182 33.2269 39.1818 32.3381C39.4 30.5606 40.7091 29.2274 42.4545 29.2274C44.2 29.2274 45.7273 30.5606 45.7273 32.3381C45.7273 33.0047 45.5091 33.4491 44.8545 33.4491C44.2 33.6713 43.9818 33.2269 43.7636 32.5603C43.7636 31.8937 43.3273 31.4493 42.6727 31.4493C42.0182 31.4493 41.5818 31.8937 41.5818 32.5603V32.7825Z" fill="#F6CAC1"/>
<path d="M73 44.3367H73.125V44.318L73.1195 44.3001L73 44.3367ZM65.5818 41.4482L65.5098 41.346L65.5005 41.3525L65.4926 41.3606L65.5818 41.4482ZM73 46.7809L73.0892 46.8685L73.125 46.832V46.7809H73ZM72.7818 47.2253L72.894 47.2804L72.9068 47.2543V47.2253H72.7818ZM72.1273 48.5585L72.2371 48.6184L72.2395 48.6136L72.1273 48.5585ZM67.9818 53.2246L67.9058 53.125L67.8996 53.1304L67.9818 53.2246ZM62.9636 53.8912L63.0413 53.7932L62.8386 53.6327V53.8912H62.9636ZM63.1818 57.2241L63.0921 57.3122L63.1029 57.321L63.1818 57.2241ZM64.7091 61.668H64.5841V61.793H64.7091V61.668ZM69.5091 66.3342L69.3841 66.3239V66.3342H69.5091ZM69.2909 68.5561L69.1721 68.5172L69.1659 68.5362V68.5561H69.2909ZM69.2909 69.2227L69.4159 69.2339V69.2227H69.2909ZM63.6183 72.8889L63.6341 72.7649L63.6338 72.7649L63.6183 72.8889ZM63.6182 72.8889L63.6024 73.0129L63.6027 73.013L63.6182 72.8889ZM62.3091 72.7778L62.2841 72.9003L62.2965 72.9028H62.3091V72.7778ZM12.1273 67.6673L12.2506 67.6875L12.2523 67.6775V67.6673H12.1273ZM12.2364 67.1118L12.3552 67.1507H12.3552L12.2364 67.1118ZM12.3455 66.5563L12.2563 66.4688L12.2205 66.5052V66.5563H12.3455ZM12.5636 65.8898H12.6886V65.7648H12.5636V65.8898ZM11.9775 65.7503L12.0261 65.6352H12.0261L11.9775 65.7503ZM11.6909 65.6676L11.6507 65.7859L11.6703 65.7926H11.6909V65.6676ZM10.8182 65.3343L10.8653 65.2185H10.8653L10.8182 65.3343ZM9.94545 65.001L9.89527 65.116L9.90527 65.1193L9.94545 65.001ZM5.8 62.1124L5.89714 62.0329L5.88919 62.0248L5.8 62.1124ZM5.58182 61.0014L5.69402 61.0565L5.70682 61.0305V61.0014H5.58182ZM7.10909 61.0014H6.98409V61.0583L7.02689 61.0956L7.10909 61.0014ZM12.1273 63.6678L12.184 63.5564L12.1701 63.5493L12.1549 63.5459L12.1273 63.6678ZM13.2182 63.0012L13.1029 62.9517L13.0994 62.9623L13.2182 63.0012ZM19.7636 54.3356L19.7069 54.2242L19.6961 54.2297L19.6866 54.2372L19.7636 54.3356ZM20.4182 53.8912L20.4941 53.9905H20.4941L20.4182 53.8912ZM21.0727 53.4468L21.1294 53.5582L21.1476 53.5489L21.1619 53.5344L21.0727 53.4468ZM21.5091 53.0024L21.5983 53.09L21.6341 53.0535V53.0024H21.5091ZM20.8545 52.558L20.7978 52.6694L20.8246 52.683H20.8545V52.558ZM9.07273 40.3372L8.95357 40.3762L8.95729 40.3852L9.07273 40.3372ZM5.58184 37.8931L5.51975 38.0017L5.52512 38.0044L5.58184 37.8931ZM5.58182 37.893L5.64384 37.7845L5.61501 37.768H5.58182V37.893ZM4.70909 37.5598L4.6199 37.6473H4.6199L4.70909 37.5598ZM4.49091 37.4487V37.3237H4.41303L4.3787 37.3936L4.49091 37.4487ZM6.89091 46.5587L6.81714 46.6601L6.82573 46.6654L6.89091 46.5587ZM6.67273 48.3363L6.63255 48.2179L6.59737 48.2298L6.57443 48.259L6.67273 48.3363ZM4.70909 56.1131H4.83409V56.0991L4.831 56.0855L4.70909 56.1131ZM2.52727 56.5575L2.40349 56.5749L2.40503 56.5859L2.40847 56.5964L2.52727 56.5575ZM2.52727 52.1136L2.65108 52.131L2.65134 52.1288L2.52727 52.1136ZM4.49091 47.4475L4.58765 47.5266L4.66433 47.4329L4.57311 47.3533L4.49091 47.4475ZM1.43636 42.5592H1.31136V42.5726L1.31424 42.5858L1.43636 42.5592ZM1.65455 37.893L1.76675 37.9481L1.77062 37.9403L1.77334 37.9319L1.65455 37.893ZM1.98182 36.7821L2.10217 36.8158H2.10217L1.98182 36.7821ZM2.30909 35.6711L2.42789 35.71L2.43409 35.691V35.6711H2.30909ZM2.30909 35.2267H2.43409V35.1977L2.4213 35.1716L2.30909 35.2267ZM1.65455 33.8935L1.76675 33.8384L1.65455 33.8935ZM1 32.5603H0.875V32.5894L0.887794 32.6154L1 32.5603ZM1 30.7828L0.91081 30.6952L0.875 30.7317V30.7828H1ZM1.65454 29.6718L1.54273 29.6159L1.54233 29.6167L1.65454 29.6718ZM1.65455 29.6718L1.76635 29.7277L1.77047 29.7194L1.77334 29.7107L1.65455 29.6718ZM2.09091 28.783L2.19861 28.8465H2.19861L2.09091 28.783ZM2.52727 27.8942L2.43808 27.8066L2.41758 27.8275L2.40847 27.8553L2.52727 27.8942ZM2.74545 27.2276L2.62045 27.2203V27.2276H2.74545ZM19.1091 4.11923L19.0571 4.00555L19.0566 4.0058L19.1091 4.11923ZM50.3091 6.56339L50.3983 6.47581L50.3884 6.46579L50.3766 6.45821L50.3091 6.56339ZM50.9636 7.00778L50.8745 7.09536L50.9636 7.00778ZM49.6545 8.78535L49.7113 8.67396L49.6845 8.66035H49.6545V8.78535ZM48.7818 8.34096L48.7154 8.44688L48.7459 8.46596H48.7818V8.34096ZM30.6727 3.67484L30.677 3.79984L30.6812 3.79956L30.6727 3.67484ZM13.4364 10.1185L13.3559 10.0229L13.3546 10.024L13.4364 10.1185ZM4.92727 24.5613L4.80429 24.5389L4.80227 24.55V24.5613H4.92727ZM4.70909 27.2276H4.58409V27.3526H4.70909V27.2276ZM5.25455 27.1165L5.21436 26.9982L5.25455 27.1165ZM7.76785 26.6743L7.79999 26.7951L7.80219 26.7945L7.76785 26.6743ZM7.76789 26.6743L7.73513 26.5536L7.73355 26.5541L7.76789 26.6743ZM7.76813 26.6742L7.73599 26.5534L7.73536 26.5536L7.76813 26.6742ZM8.2 26.561L8.1711 26.4394L8.16916 26.4399L8.2 26.561ZM26.5273 18.7842L26.5966 18.8882L26.5975 18.8876L26.5273 18.7842ZM30.2364 15.8956L30.1796 15.7842L30.1666 15.7909L30.1555 15.8003L30.2364 15.8956ZM30.7818 15.4512L30.6926 15.3637L30.7818 15.4512ZM31.3273 15.0068L31.384 15.1182L31.391 15.1147L31.3975 15.1103L31.3273 15.0068ZM33.0727 15.0068L32.9835 15.0945L32.9859 15.0968L33.0727 15.0068ZM47.2545 23.8947L47.2057 24.0098L47.2062 24.01L47.2545 23.8947ZM58.8182 27.2276L58.7973 27.3509L58.8077 27.3526H58.8182V27.2276ZM59.9091 27.2276V27.3526H60.0341V27.2276H59.9091ZM59.0364 21.8949L59.158 21.8651L59.1559 21.8583L59.0364 21.8949ZM53.5818 12.5627L53.671 12.4751L53.5818 12.5627ZM53.3636 12.3405L53.4528 12.2529L53.3636 12.3405ZM53.3636 10.7851L53.4528 10.8727V10.8727L53.3636 10.7851ZM54.8909 10.7851L54.8017 10.8727L54.8909 10.7851ZM62.3091 27.0054L62.1844 27.0139L62.1854 27.0295L62.1903 27.0443L62.3091 27.0054ZM62.4684 27.6179L62.3465 27.6455V27.6455L62.4684 27.6179ZM62.9636 28.783L63.063 28.7071L63.0583 28.701L63.0528 28.6954L62.9636 28.783ZM63.1818 35.4489L63.0772 35.3804L63.073 35.3869L63.0696 35.3938L63.1818 35.4489ZM63.1818 36.5599L63.0696 36.615L63.1818 36.5599ZM64.7449 41.5101L64.8244 41.4136H64.8244L64.7449 41.5101ZM64.9273 41.6704L64.8381 41.758L64.8748 41.7954H64.9273V41.6704ZM7.76364 36.3377L7.74564 36.4614L7.75459 36.4627H7.76364V36.3377ZM4.27273 33.8935L4.16035 33.9487L4.16372 33.9547L4.27273 33.8935ZM7.98182 36.3377V36.4627H8.10682V36.3377H7.98182ZM7.98182 29.2274H8.10682V29.1024H7.98182V29.2274ZM5.14545 29.4496L5.10527 29.3312L5.07711 29.3408L5.05626 29.362L5.14545 29.4496ZM4.49091 29.894L4.40172 29.8064L4.39308 29.8152L4.38633 29.8255L4.49091 29.894ZM58.3818 29.2274V29.1024H58.2568V29.2274H58.3818ZM58.3818 36.1155H58.2568V36.2685L58.4068 36.238L58.3818 36.1155ZM61.4364 34.3379L61.3396 34.2587L61.3381 34.2607L61.4364 34.3379ZM61.6545 29.894H61.5295V29.9313L61.55 29.9624L61.6545 29.894ZM19.3273 49.0029L19.3966 48.8988L19.3964 48.8987L19.3273 49.0029ZM9.94545 35.2267L10.0685 35.2043L10.0676 35.2L9.94545 35.2267ZM37.6545 52.558L37.6352 52.4344L37.6296 52.4355L37.6545 52.558ZM51.8364 44.7811L51.7424 44.6986L51.7404 44.701L51.8364 44.7811ZM56.4182 29.6718L56.5424 29.6577L56.541 29.645L56.537 29.6329L56.4182 29.6718ZM55.3273 28.5608L55.3676 28.4419L55.3562 28.4392L55.3273 28.5608ZM37.2182 20.5617L37.1422 20.6612L37.147 20.6645L37.2182 20.5617ZM35.8002 19.451L35.8779 19.353L35.8766 19.352L35.8002 19.451ZM35.8001 19.4509L35.7234 19.5495L35.7238 19.5498L35.8001 19.4509ZM35.8 19.4508L35.7206 19.5473L35.7232 19.5494L35.8 19.4508ZM35.8 19.4507L35.8794 19.3542L35.8776 19.3527L35.8 19.4507ZM34.3818 18.3398L34.2926 18.4274L34.2989 18.4337L34.3059 18.4391L34.3818 18.3398ZM33.7273 17.7843L33.6514 17.8836L33.7273 17.7843ZM33.0727 17.2288L33.1619 17.1412L33.0727 17.0504L32.9835 17.1412L33.0727 17.2288ZM32.4182 17.7843L32.3423 17.685L32.4182 17.7843ZM31.7636 18.3398L31.8395 18.4391L31.8466 18.4337L31.8528 18.4274L31.7636 18.3398ZM31.2367 18.7464L31.3133 18.8452H31.3133L31.2367 18.7464ZM28.7091 20.5617L28.6439 20.455L28.6398 20.4577L28.7091 20.5617ZM10.6 28.5608L10.5662 28.4405L10.5543 28.4438L10.5433 28.4494L10.6 28.5608ZM9.94545 29.4496L10.0695 29.4648L10.0705 29.4572V29.4496H9.94545ZM43.5455 70.5559H43.4205V70.6809H43.5455V70.5559ZM57.7273 70.5559V70.6809H57.9279L57.8395 70.5008L57.7273 70.5559ZM57.0727 63.4456L57.1972 63.4567L57.2094 63.3206H57.0727V63.4456ZM48.7818 60.7793L48.6771 60.8478L48.6812 60.8534L48.7818 60.7793ZM42.0182 54.5578L41.929 54.6453L41.9419 54.6585L41.9581 54.6674L42.0182 54.5578ZM41.1455 54.3356V54.2106H41.128L41.1112 54.2154L41.1455 54.3356ZM24.7818 54.3356L24.8161 54.2154L24.7993 54.2106H24.7818V54.3356ZM23.9091 54.5578L23.9729 54.6652L23.9869 54.6569L23.9983 54.6453L23.9091 54.5578ZM14.3091 67.8895L14.187 67.8618L14.1857 67.8693L14.3091 67.8895ZM22.3818 70.5559V70.6809H22.5068V70.5559H22.3818ZM24.5636 70.5559H24.4386V70.6809H24.5636V70.5559ZM43.5455 66.112H43.6705V66.092L43.6643 66.0731L43.5455 66.112ZM58.3818 57.6685L58.2696 57.6134L58.2658 57.6213L58.263 57.6296L58.3818 57.6685ZM57.7273 59.6683L57.6085 59.6294L57.6023 59.6483V59.6683H57.7273ZM61.2182 56.1131L61.2391 56.2364L61.3432 56.2187V56.1131H61.2182ZM59.9091 50.5582L59.8102 50.6359L59.8199 50.6458L59.9091 50.5582ZM57.9455 47.2253L57.8274 47.2667L57.8291 47.271L57.9455 47.2253ZM61.8727 40.7816L61.8907 40.9053L61.9324 40.8992L61.9619 40.8692L61.8727 40.7816ZM62.5273 40.5594V40.6844H62.6523V40.5594H62.5273ZM62.0909 38.3374H61.9659V38.3574L61.9721 38.3763L62.0909 38.3374ZM61.8727 37.4487H61.9977V37.3237H61.8727V37.4487ZM61.5455 37.5598L61.6022 37.6711L61.5455 37.5598ZM61.2182 37.6708V37.5458H61.1882L61.1615 37.5595L61.2182 37.6708ZM60.5636 37.893L60.5328 37.7719L60.5636 37.893ZM59.9091 38.1152V38.2402H59.9391L59.9658 38.2266L59.9091 38.1152ZM57.5091 39.004L57.6257 39.049L57.6341 39.0273V39.004H57.5091ZM45.0727 52.558V52.683H45.1017L45.1278 52.6702L45.0727 52.558ZM44.6364 52.7802V52.6552H44.5114V52.7802H44.6364ZM44.4182 53.0024V52.8774H43.963L44.3543 53.1099L44.4182 53.0024ZM50.9636 59.4461L50.8619 59.5187L50.8676 59.5267L50.8745 59.5336L50.9636 59.4461ZM57.5091 60.5571V60.6821H57.6341V60.5571H57.5091ZM57.6182 60.1127L57.737 60.1515L57.7393 60.1445L57.7408 60.1372L57.6182 60.1127ZM57.6182 60.1126L57.4996 60.0731L57.4972 60.0805L57.4956 60.0881L57.6182 60.1126ZM57.6182 60.1126L57.7368 60.1521L57.737 60.1515L57.6182 60.1126ZM59.9091 59.4461L59.7877 59.4163L59.7841 59.431V59.4461H59.9091ZM59.8 60.2237L59.6773 60.1996L59.6767 60.2031L59.8 60.2237ZM59.8 60.2238L59.9227 60.2479L59.9233 60.2444L59.8 60.2238ZM59.6909 61.0014L59.8097 61.0403L59.8159 61.0214V61.0014H59.6909ZM59.4727 62.779L59.5965 62.7964L59.5977 62.7877V62.779H59.4727ZM62.5273 70.5559L62.5131 70.6809H62.5273V70.5559ZM65.3636 70.5559V70.6809H65.3793L65.3945 70.677L65.3636 70.5559ZM67.1091 69.0005L67.2306 69.0303L67.2318 69.0246L67.1091 69.0005ZM70.8182 46.5587L70.7059 46.5036L70.704 46.5077L70.8182 46.5587ZM65.5818 51.8914V52.0164H65.6142L65.6425 52.0007L65.5818 51.8914ZM69.7273 43.0036L69.8062 42.9067L69.7959 42.8982L69.784 42.8922L69.7273 43.0036ZM66.2364 43.8923L66.3261 43.9805L66.3347 43.9696L66.2364 43.8923ZM64.2727 43.8923L64.1835 43.9799V43.9799L64.2727 43.8923ZM64.0546 43.6701L63.9539 43.7443L63.9592 43.7514L63.9654 43.7577L64.0546 43.6701ZM61.2182 43.0036L61.171 42.8878L61.2182 43.0036ZM59.5818 45.781L59.694 45.7259V45.7259L59.5818 45.781ZM60.1273 47.2253L60.015 47.2804L60.0175 47.2851L60.1273 47.2253ZM64.9273 51.8914L64.8657 52.0002L64.8944 52.0164H64.9273V51.8914ZM19.9818 32.3381L19.858 32.3208L19.8568 32.3294V32.3381H19.9818ZM26.3091 32.1159L26.1857 32.0957L26.1841 32.1058V32.1159H26.3091ZM25.4364 33.4491V33.3241H25.4064L25.3797 33.3377L25.4364 33.4491ZM24.3455 32.5603L24.2237 32.5902L24.2267 32.5992L24.3455 32.5603ZM23.0364 31.4493L22.9962 31.331L22.9877 31.3339L22.9797 31.338L23.0364 31.4493ZM22.1637 32.5603L22.285 32.5901L22.2887 32.5754V32.5603H22.1637ZM35.0364 30.7828L35.0613 30.6603L35.049 30.6578H35.0364V30.7828ZM38.5273 34.5602L38.6519 34.55L38.6517 34.548L38.5273 34.5602ZM33.7273 30.5606L33.784 30.4492L33.7573 30.4356H33.7273V30.5606ZM30.8909 30.5606V30.4351L30.8794 30.4362L30.8909 30.5606ZM27.4 34.7824H27.5255L27.5245 34.7712L27.4 34.7824ZM27.6182 36.5599L27.7393 36.5282L27.737 36.521L27.6182 36.5599ZM34.6 40.5595L34.5692 40.4383L34.5616 40.4402L34.5544 40.4431L34.6 40.5595ZM29.5818 35.8933H29.4568V35.9133L29.463 35.9322L29.5818 35.8933ZM32.2 38.7819L32.1598 38.9003L32.2 38.7819ZM29.3636 35.0046H29.2386V35.0336L29.2514 35.0597L29.3636 35.0046ZM31.1091 32.7826V32.6576H31.0986L31.0882 32.6594L31.1091 32.7826ZM34.3355 32.8769L34.3076 32.9988L34.3355 32.8769ZM35.2545 33.0048L35.2947 32.8864L35.2752 32.8798H35.2545V33.0048ZM36.3455 34.1158L36.4688 34.0956L36.4658 34.0773L36.4577 34.0607L36.3455 34.1158ZM35.2545 37.6709L35.1562 37.5937L35.1511 37.6003L35.1468 37.6075L35.2545 37.6709ZM39.1818 32.3381L39.0577 32.3229L39.0532 32.3598L39.0696 32.3932L39.1818 32.3381ZM44.8545 33.4491V33.3241H44.8339L44.8144 33.3307L44.8545 33.4491ZM43.7636 32.5603H43.6386V32.5803L43.6448 32.5992L43.7636 32.5603ZM73.1195 44.3001C72.5642 42.4905 71.3942 41.236 69.9906 40.6928C68.5858 40.1492 66.9602 40.3234 65.5098 41.346L65.6538 41.5503C67.0398 40.5732 68.5778 40.4141 69.9003 40.9259C71.2239 41.4382 72.3449 42.6278 72.8805 44.3734L73.1195 44.3001ZM73.125 46.7809V44.3367H72.875V46.7809H73.125ZM72.9068 47.2253C72.9068 47.1511 72.9451 47.0652 72.9955 46.9882C73.0194 46.9517 73.0435 46.921 73.0615 46.8996C73.0705 46.8889 73.0779 46.8807 73.0828 46.8753C73.0852 46.8727 73.0871 46.8707 73.0882 46.8695C73.0887 46.869 73.0891 46.8686 73.0893 46.8684C73.0894 46.8683 73.0894 46.8683 73.0894 46.8683C73.0894 46.8683 73.0894 46.8683 73.0893 46.8683C73.0893 46.8684 73.0893 46.8684 73.0893 46.8684C73.0893 46.8684 73.0892 46.8684 73.0892 46.8684C73.0892 46.8685 73.0892 46.8685 73 46.7809C72.9108 46.6933 72.9108 46.6933 72.9108 46.6934C72.9108 46.6934 72.9107 46.6934 72.9107 46.6934C72.9107 46.6934 72.9106 46.6935 72.9106 46.6935C72.9105 46.6936 72.9104 46.6937 72.9103 46.6938C72.9101 46.6941 72.9098 46.6943 72.9095 46.6947C72.9088 46.6953 72.908 46.6962 72.9069 46.6973C72.9048 46.6995 72.902 46.7026 72.8985 46.7064C72.8914 46.7141 72.8818 46.725 72.8703 46.7386C72.8474 46.7657 72.817 46.8045 72.7863 46.8513C72.7276 46.941 72.6568 47.0773 72.6568 47.2253H72.9068ZM72.2395 48.6136L72.894 47.2804L72.6696 47.1702L72.0151 48.5034L72.2395 48.6136ZM68.0577 53.3239C69.8129 51.9833 71.1355 50.6375 72.237 48.6183L72.0175 48.4986C70.9372 50.4789 69.6417 51.7995 67.9059 53.1252L68.0577 53.3239ZM62.886 53.9892C63.8926 54.7865 64.8038 54.9674 65.6653 54.7627C66.5154 54.5607 67.2988 53.9867 68.064 53.3187L67.8996 53.1304C67.1376 53.7956 66.3937 54.3326 65.6075 54.5195C64.8326 54.7036 63.9983 54.5512 63.0413 53.7932L62.886 53.9892ZM63.0886 55.0022V53.8912H62.8386V55.0022H63.0886ZM63.0886 56.7797V55.0022H62.8386V56.7797H63.0886ZM63.271 57.1365C63.2155 57.08 63.1773 57.0411 63.1493 57.0094C63.1216 56.978 63.1096 56.96 63.1031 56.9468C63.0913 56.9228 63.0886 56.9002 63.0886 56.7797H62.8386C62.8386 56.8814 62.836 56.97 62.8787 57.057C62.8995 57.0994 62.9284 57.1369 62.962 57.175C62.9954 57.2127 63.039 57.2571 63.0926 57.3117L63.271 57.1365ZM64.8341 60.5571C64.8341 59.1915 64.3846 58.0428 63.2608 57.1272L63.1029 57.321C64.1608 58.183 64.5841 59.2562 64.5841 60.5571H64.8341ZM64.8341 61.2236V60.5571H64.5841V61.2236H64.8341ZM64.8341 61.668V61.2236H64.5841V61.668H64.8341ZM65.3636 61.543H64.7091V61.793H65.3636V61.543ZM69.6337 66.3443C69.7452 64.9812 69.355 63.78 68.5937 62.9184C67.8319 62.0564 66.7059 61.543 65.3636 61.543V61.793C66.6396 61.793 67.6954 62.2795 68.4063 63.084C69.1177 63.8889 69.4911 65.0208 69.3845 66.324L69.6337 66.3443ZM69.4097 68.595C69.6353 67.9056 69.6341 66.995 69.6341 66.3342H69.3841C69.3841 67.0065 69.3828 67.8734 69.1721 68.5172L69.4097 68.595ZM69.4159 69.2227V68.5561H69.1659V69.2227H69.4159ZM64.9273 73.125C66.2569 73.125 67.3256 72.7864 68.091 72.1223C68.8573 71.4575 69.3042 70.48 69.4154 69.2338L69.1664 69.2116C69.0595 70.4095 68.6336 71.3207 67.9272 71.9335C67.2199 72.5471 66.2158 72.875 64.9273 72.875V73.125ZM63.6025 73.0129C64.0375 73.0683 64.4817 73.125 64.9273 73.125V72.875C64.5002 72.875 64.0718 72.8207 63.6341 72.7649L63.6025 73.0129ZM63.6027 73.013L63.6028 73.013L63.6338 72.7649L63.6337 72.7649L63.6027 73.013ZM62.3091 72.9028C62.7362 72.9028 63.1647 72.9572 63.6024 73.0129L63.634 72.7649C63.199 72.7096 62.7547 72.6528 62.3091 72.6528V72.9028ZM59.2545 72.6806C60.346 72.6806 61.2071 72.6809 62.2841 72.9003L62.334 72.6553C61.2293 72.4303 60.3449 72.4306 59.2545 72.4306V72.6806ZM27.6182 72.6806H59.2545V72.4306H27.6182V72.6806ZM17.1455 72.6806H27.6182V72.4306H17.1455V72.6806ZM16.9273 72.6806H17.1455V72.4306H16.9273V72.6806ZM16.2727 72.6806H16.9273V72.4306H16.2727V72.6806ZM12.0039 67.6471C11.5549 70.391 13.5789 72.6806 16.2727 72.6806V72.4306C13.7302 72.4306 11.8269 70.2764 12.2506 67.6875L12.0039 67.6471ZM12.1176 67.073C12.063 67.2397 12.0023 67.4232 12.0023 67.6673H12.2523C12.2523 67.467 12.3006 67.3173 12.3552 67.1507L12.1176 67.073ZM12.2205 66.5563C12.2205 66.7566 12.1721 66.9064 12.1176 67.073L12.3552 67.1507C12.4097 66.984 12.4705 66.8004 12.4705 66.5563H12.2205ZM12.4386 65.8898C12.4386 66.1104 12.4363 66.2854 12.2563 66.4688L12.4346 66.6439C12.691 66.3829 12.6886 66.1135 12.6886 65.8898H12.4386ZM11.929 65.8655C12.0802 65.9293 12.281 66.0148 12.5636 66.0148V65.7648C12.335 65.7648 12.1743 65.6977 12.0261 65.6352L11.929 65.8655ZM11.6909 65.7926C11.7509 65.7926 11.8164 65.818 11.929 65.8655L12.0261 65.6352C11.9269 65.5933 11.8116 65.5426 11.6909 65.5426V65.7926ZM10.771 65.45C11.0436 65.5611 11.3195 65.6735 11.6507 65.7859L11.7311 65.5492C11.4078 65.4394 11.1382 65.3297 10.8653 65.2185L10.771 65.45ZM9.90527 65.1193C10.2286 65.2291 10.4981 65.3389 10.771 65.45L10.8653 65.2185C10.5928 65.1075 10.3169 64.9951 9.98564 64.8826L9.90527 65.1193ZM5.70326 62.1916C6.81249 63.5471 8.36077 64.4457 9.89545 65.1155L9.99546 64.8864C8.47559 64.2231 6.96933 63.3441 5.89674 62.0333L5.70326 62.1916ZM5.46961 60.9464C5.21867 61.4575 5.47298 61.9578 5.71081 62.2L5.88919 62.0248C5.69066 61.8227 5.50861 61.4342 5.69402 61.0565L5.46961 60.9464ZM6.45455 60.2099C6.31855 60.2099 6.07884 60.274 5.87349 60.3935C5.66991 60.5119 5.45682 60.7113 5.45682 61.0014H5.70682C5.70682 60.8471 5.821 60.7133 5.99924 60.6095C6.1757 60.5068 6.37236 60.4599 6.45455 60.4599V60.2099ZM7.23409 61.0014C7.23409 60.7605 7.17494 60.5568 7.03464 60.4139C6.89393 60.2706 6.69258 60.2099 6.45455 60.2099V60.4599C6.65288 60.4599 6.7788 60.5102 6.85626 60.5891C6.93415 60.6684 6.98409 60.7979 6.98409 61.0014H7.23409ZM12.1549 63.5459C10.2158 63.107 8.70669 62.2301 7.19129 60.9073L7.02689 61.0956C8.56603 62.4392 10.1115 63.3398 12.0997 63.7897L12.1549 63.5459ZM13.0994 62.9623C12.9959 63.2785 12.8469 63.4694 12.6917 63.5598C12.542 63.6469 12.3692 63.6507 12.184 63.5564L12.0706 63.7792C12.3217 63.9071 12.5853 63.9109 12.8174 63.7758C13.044 63.644 13.2223 63.3905 13.337 63.0401L13.0994 62.9623ZM19.6866 54.2372C16.8325 56.473 14.6382 59.3789 13.1033 62.9519L13.333 63.0506C14.8527 59.5132 17.0221 56.642 19.8407 54.434L19.6866 54.2372ZM20.3423 53.7918C20.1218 53.9602 19.913 54.1192 19.7069 54.2242L19.8204 54.4469C20.0506 54.3297 20.2782 54.1554 20.4941 53.9905L20.3423 53.7918ZM21.016 53.3354C20.7857 53.4526 20.5582 53.6269 20.3423 53.7918L20.4941 53.9905C20.7145 53.8221 20.9234 53.6631 21.1294 53.5582L21.016 53.3354ZM21.4199 52.9148L20.9835 53.3592L21.1619 53.5344L21.5983 53.09L21.4199 52.9148ZM21.2909 52.7802C21.2909 52.9052 21.2908 52.9052 21.2908 52.9052C21.2908 52.9052 21.2907 52.9052 21.2907 52.9052C21.2906 52.9052 21.2905 52.9052 21.2904 52.9052C21.2903 52.9052 21.2902 52.9052 21.2901 52.9052C21.2898 52.9052 21.2896 52.9052 21.2895 52.9052C21.2892 52.9052 21.2891 52.9052 21.2891 52.9052C21.2892 52.9052 21.2899 52.9052 21.2912 52.9053C21.2938 52.9055 21.2983 52.9059 21.3041 52.9069C21.3162 52.909 21.3305 52.9128 21.3433 52.9194C21.3555 52.9256 21.3644 52.9331 21.3704 52.9424C21.376 52.951 21.3841 52.9682 21.3841 53.0024H21.6341C21.6341 52.9254 21.6149 52.8594 21.5796 52.8055C21.5447 52.7522 21.499 52.7181 21.4567 52.6966C21.415 52.6753 21.3747 52.6653 21.3459 52.6604C21.3312 52.6579 21.3187 52.6566 21.3094 52.656C21.3047 52.6556 21.3007 52.6554 21.2976 52.6553C21.296 52.6553 21.2947 52.6552 21.2936 52.6552C21.293 52.6552 21.2925 52.6552 21.2921 52.6552C21.2919 52.6552 21.2916 52.6552 21.2915 52.6552C21.2914 52.6552 21.2913 52.6552 21.2912 52.6552C21.2911 52.6552 21.2911 52.6552 21.291 52.6552C21.291 52.6552 21.2909 52.6552 21.2909 52.7802ZM20.9835 52.7567C21.0391 52.8132 21.126 52.9052 21.2909 52.9052V52.6552C21.26 52.6552 21.2415 52.648 21.2265 52.6388C21.2078 52.6273 21.1909 52.611 21.1619 52.5815L20.9835 52.7567ZM20.8545 52.683C20.8855 52.683 20.9039 52.6902 20.9189 52.6994C20.9377 52.7109 20.9546 52.7272 20.9835 52.7567L21.1619 52.5815C21.1064 52.525 21.0195 52.433 20.8545 52.433V52.683ZM8.95729 40.3852C11.3711 46.1954 15.541 49.9926 20.7978 52.6694L20.9113 52.4466C15.6953 49.7907 11.5744 46.0332 9.18816 40.2892L8.95729 40.3852ZM6.89091 38.4624C7.52193 38.4624 7.92233 38.6219 8.2199 38.925C8.52499 39.2357 8.73604 39.7104 8.95393 40.3761L9.19153 40.2983C8.97306 39.6308 8.74774 39.1057 8.39828 38.7498C8.04131 38.3863 7.56898 38.2124 6.89091 38.2124V38.4624ZM5.52512 38.0044C5.95403 38.2229 6.4187 38.4624 6.89091 38.4624V38.2124C6.49041 38.2124 6.08236 38.0076 5.63856 37.7817L5.52512 38.0044ZM5.5198 38.0016L5.51982 38.0016L5.64386 37.7845L5.64384 37.7845L5.5198 38.0016ZM5.19782 37.8933C5.29947 37.9451 5.43687 38.018 5.58182 38.018V37.768C5.50858 37.768 5.4278 37.7299 5.31127 37.6706L5.19782 37.8933ZM4.92727 37.7958C5.00051 37.7958 5.08129 37.834 5.19782 37.8933L5.31127 37.6706C5.20962 37.6188 5.07222 37.5458 4.92727 37.5458V37.7958ZM4.6199 37.6473C4.67543 37.7039 4.76232 37.7958 4.92727 37.7958V37.5458C4.89633 37.5458 4.87789 37.5386 4.8629 37.5295C4.84412 37.518 4.82722 37.5016 4.79828 37.4722L4.6199 37.6473ZM4.49091 37.5737C4.52185 37.5737 4.54029 37.5809 4.55528 37.59C4.57407 37.6015 4.59096 37.6179 4.6199 37.6473L4.79828 37.4722C4.74276 37.4156 4.65586 37.3237 4.49091 37.3237V37.5737ZM6.96444 46.4576C3.95798 44.2706 3.10319 40.5588 4.60312 37.5037L4.3787 37.3936C2.82409 40.56 3.71475 44.4028 6.81738 46.6598L6.96444 46.4576ZM6.71291 48.4546C7.04755 48.341 7.30827 48.2102 7.49121 48.0619C7.67489 47.913 7.78873 47.739 7.80632 47.5419C7.82384 47.3457 7.7434 47.1546 7.59804 46.9762C7.45283 46.798 7.23537 46.6227 6.95608 46.452L6.82573 46.6654C7.0919 46.828 7.28354 46.986 7.40423 47.1341C7.52478 47.2821 7.56707 47.4104 7.55731 47.5197C7.54763 47.6282 7.4842 47.7458 7.33379 47.8677C7.18264 47.9902 6.95245 48.1093 6.63255 48.2179L6.71291 48.4546ZM4.831 56.0855C4.18648 53.2412 5.04362 50.6125 6.77103 48.4135L6.57443 48.259C4.81093 50.504 3.92262 53.208 4.58718 56.1408L4.831 56.0855ZM3.87654 57.5647C4.22504 57.4464 4.4699 57.264 4.62472 57.0117C4.77785 56.7622 4.83409 56.4585 4.83409 56.1131H4.58409C4.58409 56.4344 4.53124 56.6861 4.41165 56.881C4.29374 57.0731 4.10223 57.224 3.79618 57.3279L3.87654 57.5647ZM2.40847 56.5964C2.52171 56.9424 2.69626 57.2466 2.94231 57.4345C3.19521 57.6277 3.51181 57.6885 3.87654 57.5647L3.79618 57.3279C3.50638 57.4263 3.27752 57.376 3.09406 57.2359C2.90374 57.0905 2.75102 56.8393 2.64607 56.5186L2.40847 56.5964ZM2.40349 52.0962C2.18369 53.6631 2.18369 55.008 2.40349 56.5749L2.65106 56.5402C2.43449 54.9963 2.43449 53.6748 2.65106 52.131L2.40349 52.0962ZM4.39417 47.3683C3.28768 48.7205 2.62415 50.2983 2.4032 52.0984L2.65134 52.1288C2.86676 50.3737 3.51233 48.8408 4.58765 47.5266L4.39417 47.3683ZM1.31424 42.5858C1.75765 44.6179 2.86649 46.1954 4.40871 47.5417L4.57311 47.3533C3.06078 46.0332 1.98781 44.5 1.55849 42.5325L1.31424 42.5858ZM1.20588 41.9224C1.26113 42.1474 1.31136 42.3547 1.31136 42.5592H1.56136C1.56136 42.3192 1.50251 42.0821 1.44867 41.8628L1.20588 41.9224ZM1.09318 41.226C1.09318 41.4659 1.15204 41.703 1.20588 41.9224L1.44867 41.8628C1.39342 41.6377 1.34318 41.4304 1.34318 41.226H1.09318ZM1.09318 40.7816V41.226H1.34318V40.7816H1.09318ZM1.09318 39.4484V40.7816H1.34318V39.4484H1.09318ZM1.54234 37.838C1.32068 38.2894 1.09318 38.9762 1.09318 39.4484H1.34318C1.34318 39.0318 1.55204 38.3855 1.76675 37.9481L1.54234 37.838ZM1.86146 36.7483C1.75218 37.1378 1.64384 37.5239 1.53575 37.8542L1.77334 37.9319C1.88343 37.5956 1.99328 37.204 2.10217 36.8158L1.86146 36.7483ZM2.19029 35.6322C2.0802 35.9685 1.97036 36.3602 1.86146 36.7483L2.10217 36.8158C2.21146 36.4263 2.3198 36.0402 2.42789 35.71L2.19029 35.6322ZM2.18409 35.2267V35.6711H2.43409V35.2267H2.18409ZM1.54234 33.9486L2.19688 35.2818L2.4213 35.1716L1.76675 33.8384L1.54234 33.9486ZM0.887794 32.6154L1.54234 33.9486L1.76675 33.8384L1.11221 32.5052L0.887794 32.6154ZM0.875 30.7828V32.5603H1.125V30.7828H0.875ZM1.54233 29.6167C1.43287 29.8397 1.32535 30.0586 1.21826 30.2494C1.1103 30.4418 1.00779 30.5964 0.91081 30.6952L1.08919 30.8703C1.21039 30.7469 1.32606 30.5682 1.43628 30.3718C1.54737 30.1738 1.65803 29.9483 1.76675 29.7269L1.54233 29.6167ZM1.54274 29.6159L1.54274 29.6159L1.76634 29.7277L1.76635 29.7277L1.54274 29.6159ZM1.98321 28.7196C1.82032 28.996 1.64967 29.2849 1.53575 29.6329L1.77334 29.7107C1.87761 29.3921 2.03423 29.1255 2.19861 28.8465L1.98321 28.7196ZM2.40847 27.8553C2.30421 28.1739 2.14759 28.4405 1.98321 28.7196L2.19861 28.8465C2.3615 28.57 2.53215 28.2811 2.64607 27.9331L2.40847 27.8553ZM2.62045 27.2276C2.62045 27.4483 2.61813 27.6233 2.43808 27.8066L2.61646 27.9818C2.87278 27.7208 2.87045 27.4514 2.87045 27.2276H2.62045ZM19.0566 4.0058C9.42102 8.46618 3.27831 16.058 2.62067 27.2203L2.87024 27.235C3.52169 16.1776 9.59716 8.66013 19.1616 4.23267L19.0566 4.0058ZM50.3766 6.45821C40.3059 -0.00754833 29.7882 -0.901143 19.0571 4.00555L19.1611 4.23291C29.8118 -0.637016 40.2396 0.246958 50.2416 6.66858L50.3766 6.45821ZM50.6931 6.6742C50.5841 6.61871 50.4917 6.57094 50.3983 6.47581L50.2199 6.65097C50.3447 6.77804 50.4704 6.84137 50.5796 6.89698L50.6931 6.6742ZM51.0528 6.92021C50.9281 6.79313 50.8023 6.72981 50.6931 6.6742L50.5796 6.89698C50.6886 6.95246 50.781 7.00024 50.8745 7.09536L51.0528 6.92021ZM51.271 8.65074C51.523 8.39415 51.5837 8.07225 51.5227 7.76138C51.4624 7.45451 51.284 7.15568 51.0528 6.9202L50.8745 7.09536C51.0796 7.30428 51.2285 7.56094 51.2773 7.80956C51.3254 8.05418 51.277 8.28777 51.0926 8.47558L51.271 8.65074ZM49.5978 8.89674C50.0713 9.13782 50.7881 9.14258 51.271 8.65074L51.0926 8.47558C50.7029 8.87252 50.1106 8.87728 49.7113 8.67396L49.5978 8.89674ZM49.3472 8.76183C49.4027 8.81838 49.4896 8.91035 49.6545 8.91035V8.66035C49.6236 8.66035 49.6052 8.65313 49.5902 8.64397C49.5714 8.63249 49.5545 8.61615 49.5256 8.58668L49.3472 8.76183ZM49.2182 8.68816C49.2491 8.68816 49.2676 8.69538 49.2826 8.70454C49.3013 8.71602 49.3182 8.73236 49.3472 8.76183L49.5256 8.58668C49.47 8.53013 49.3831 8.43816 49.2182 8.43816V8.68816ZM48.9108 8.53964C48.9663 8.59618 49.0532 8.68816 49.2182 8.68816V8.43816C49.1872 8.43816 49.1688 8.43093 49.1538 8.42178C49.135 8.4103 49.1181 8.39396 49.0892 8.36448L48.9108 8.53964ZM48.7818 8.46596C48.8128 8.46596 48.8312 8.47318 48.8462 8.48234C48.865 8.49382 48.8819 8.51016 48.9108 8.53964L49.0892 8.36448C49.0337 8.30793 48.9468 8.21596 48.7818 8.21596V8.46596ZM30.6812 3.79956C37.199 3.35704 43.0639 4.90503 48.7154 8.44688L48.8482 8.23504C43.1543 4.66662 37.2373 3.10386 30.6643 3.55013L30.6812 3.79956ZM13.5168 10.2142C18.5118 6.01198 24.157 4.0211 30.677 3.79977L30.6685 3.54991C24.0975 3.77298 18.3973 5.78163 13.3559 10.0229L13.5168 10.2142ZM5.05026 24.5836C6.13529 18.6167 9.17254 13.9748 13.5182 10.213L13.3546 10.024C8.97291 13.8169 5.90108 18.5073 4.80429 24.5389L5.05026 24.5836ZM4.94084 25.4741C4.99528 25.197 5.05227 24.9082 5.05227 24.5613H4.80227C4.80227 24.8809 4.75018 25.1477 4.69552 25.426L4.94084 25.4741ZM4.83409 26.3388C4.83409 26.0192 4.88619 25.7524 4.94084 25.4741L4.69552 25.426C4.64109 25.7032 4.58409 25.9919 4.58409 26.3388H4.83409ZM4.83409 27.2276V26.3388H4.58409V27.2276H4.83409ZM5.21436 26.9982C5.05074 27.0537 4.90457 27.1026 4.70909 27.1026V27.3526C4.94997 27.3526 5.13108 27.2905 5.29473 27.2349L5.21436 26.9982ZM5.8 26.8804C5.55912 26.8804 5.37802 26.9426 5.21436 26.9982L5.29473 27.2349C5.45835 27.1794 5.60452 27.1304 5.8 27.1304V26.8804ZM7.73572 26.5535C7.06307 26.7324 6.50455 26.8804 5.8 26.8804V27.1304C6.54143 27.1304 7.12942 26.9735 7.79999 26.7951L7.73572 26.5535ZM7.73355 26.5541L7.73351 26.5541L7.80219 26.7945L7.80223 26.7945L7.73355 26.5541ZM7.73536 26.5536L7.73513 26.5536L7.80066 26.7949L7.80089 26.7948L7.73536 26.5536ZM8.16916 26.4399C8.01877 26.4782 7.87492 26.5165 7.73599 26.5534L7.80026 26.795C7.93935 26.758 8.08195 26.7201 8.23084 26.6822L8.16916 26.4399ZM26.458 18.6801C20.7995 22.448 14.7046 24.8869 8.1711 26.4394L8.2289 26.6827C14.7863 25.1244 20.9096 22.675 26.5966 18.8882L26.458 18.6801ZM30.1555 15.8003C28.8474 16.9105 27.7605 17.7958 26.4571 18.6808L26.5975 18.8876C27.9122 17.995 29.0072 17.1027 30.3172 15.9909L30.1555 15.8003ZM30.6926 15.3637C30.5269 15.5324 30.3768 15.6838 30.1796 15.7842L30.2931 16.007C30.5323 15.8852 30.7094 15.7034 30.871 15.5388L30.6926 15.3637ZM31.2706 14.8955C31.0314 15.0172 30.8542 15.1991 30.6926 15.3637L30.871 15.5388C31.0367 15.3701 31.1868 15.2186 31.384 15.1182L31.2706 14.8955ZM33.1619 14.9193C32.82 14.5711 32.5121 14.4328 32.1873 14.4659C31.8782 14.4974 31.58 14.6842 31.2571 14.9034L31.3975 15.1103C31.7291 14.8851 31.9763 14.7387 32.2127 14.7146C32.4333 14.6921 32.6709 14.776 32.9835 15.0944L33.1619 14.9193ZM47.3034 23.7796C42.0746 21.5609 37.2898 18.9018 33.1595 14.9169L32.9859 15.0968C37.1465 19.1109 41.9617 21.7846 47.2057 24.0098L47.3034 23.7796ZM58.8391 27.1044C54.9207 26.4393 51.0027 25.3309 47.3029 23.7794L47.2062 24.01C50.9246 25.5692 54.8611 26.6828 58.7973 27.3509L58.8391 27.1044ZM59.4727 27.1026H58.8182V27.3526H59.4727V27.1026ZM59.9091 27.1026H59.4727V27.3526H59.9091V27.1026ZM58.915 21.9247C59.352 23.7052 59.7841 25.4678 59.7841 27.2276H60.0341C60.0341 25.4323 59.5934 23.6398 59.1578 21.8651L58.915 21.9247ZM53.4926 12.6503C56.0953 15.3008 57.8312 18.3935 58.9169 21.9316L59.1559 21.8583C58.0597 18.2861 56.3047 15.1572 53.671 12.4751L53.4926 12.6503ZM53.2744 12.4281L53.4926 12.6503L53.671 12.4751L53.4528 12.2529L53.2744 12.4281ZM53.2744 10.6975C52.7903 11.1906 52.7903 11.9351 53.2744 12.4281L53.4528 12.2529C53.0642 11.8571 53.0642 11.2685 53.4528 10.8727L53.2744 10.6975ZM54.9801 10.6975C54.4947 10.2033 53.7598 10.2033 53.2744 10.6975L53.4528 10.8727C53.8402 10.4782 54.4144 10.4782 54.8017 10.8727L54.9801 10.6975ZM62.4338 26.997C61.9953 20.5211 59.3629 15.161 54.9801 10.6975L54.8017 10.8727C59.1462 15.2971 61.7502 20.6024 62.1844 27.0139L62.4338 26.997ZM62.5903 27.5904C62.5454 27.3914 62.4976 27.1794 62.4279 26.9665L62.1903 27.0443C62.2557 27.2442 62.3012 27.4449 62.3465 27.6455L62.5903 27.5904ZM63.0528 28.6954C62.7807 28.4183 62.6927 28.0432 62.5903 27.5904L62.3465 27.6455C62.4455 28.0837 62.544 28.5341 62.8745 28.8706L63.0528 28.6954ZM63.2864 35.5173C64.6231 33.4755 64.624 30.7511 63.063 28.7071L62.8643 28.8589C64.3578 30.8144 64.3587 33.4228 63.0772 35.3804L63.2864 35.5173ZM63.294 36.5048C63.1877 36.2883 63.1432 36.1423 63.1432 36.0044C63.1432 35.8664 63.1877 35.7204 63.294 35.504L63.0696 35.3938C62.9577 35.6217 62.8932 35.809 62.8932 36.0044C62.8932 36.1997 62.9577 36.387 63.0696 36.615L63.294 36.5048ZM64.3977 40.7816C64.3977 39.2009 63.9537 37.8484 63.294 36.5048L63.0696 36.615C63.719 37.9377 64.1477 39.2516 64.1477 40.7816H64.3977ZM64.8244 41.4136C64.5977 41.2269 64.3977 41.0531 64.3977 40.7816H64.1477C64.1477 41.1891 64.457 41.4349 64.6654 41.6066L64.8244 41.4136ZM65.0165 41.5828C64.9594 41.5247 64.8902 41.4679 64.8244 41.4136L64.6654 41.6066C64.734 41.6631 64.7921 41.7111 64.8381 41.758L65.0165 41.5828ZM65.4926 41.3606C65.3133 41.5432 65.1433 41.5454 64.9273 41.5454V41.7954C65.1477 41.7954 65.414 41.7976 65.671 41.5358L65.4926 41.3606ZM7.78163 36.214C7.03176 36.1049 6.39635 35.8878 5.84294 35.5121C5.28953 35.1364 4.81078 34.597 4.38174 33.8323L4.16372 33.9547C4.6074 34.7454 5.11047 35.317 5.70251 35.719C6.29456 36.1209 6.96824 36.3483 7.74564 36.4614L7.78163 36.214ZM7.98182 36.2127H7.76364V36.4627H7.98182V36.2127ZM7.85682 29.2274V36.3377H8.10682V29.2274H7.85682ZM7.54545 29.3524H7.98182V29.1024H7.54545V29.3524ZM5.18564 29.568C5.81638 29.3538 6.66553 29.3524 7.54545 29.3524V29.1024C6.67992 29.1024 5.78362 29.101 5.10527 29.3312L5.18564 29.568ZM4.8749 29.7832C4.98412 29.7276 5.10987 29.6642 5.23464 29.5372L5.05626 29.362C4.96286 29.4571 4.87043 29.5049 4.76146 29.5604L4.8749 29.7832ZM4.5801 29.9816C4.67351 29.8864 4.76593 29.8387 4.8749 29.7832L4.76146 29.5604C4.65225 29.616 4.52649 29.6793 4.40172 29.8064L4.5801 29.9816ZM4.38493 33.8384C3.74807 32.5413 3.74909 31.2554 4.59549 29.9624L4.38633 29.8255C3.48727 31.1989 3.4883 32.5794 4.16052 33.9486L4.38493 33.8384ZM58.3818 29.3524H58.8182V29.1024H58.3818V29.3524ZM58.5068 36.1155V29.2274H58.2568V36.1155H58.5068ZM61.3381 34.2607C60.4898 35.3406 59.4302 35.7744 58.3569 35.993L58.4068 36.238C59.5153 36.0122 60.6375 35.5572 61.5347 34.4151L61.3381 34.2607ZM61.55 29.9624C62.3949 31.2531 62.3937 32.9706 61.3396 34.2587L61.5331 34.4171C62.6609 33.0388 62.6597 31.2012 61.7591 29.8255L61.55 29.9624ZM61.2182 29.5746C61.2858 29.5746 61.3645 29.6103 61.429 29.676C61.4934 29.7416 61.5295 29.8227 61.5295 29.894H61.7795C61.7795 29.743 61.7066 29.602 61.6074 29.5009C61.5083 29.3999 61.3687 29.3246 61.2182 29.3246V29.5746ZM60.0002 29.4622C60.3813 29.5176 60.7716 29.5746 61.2182 29.5746V29.3246C60.7921 29.3246 60.4187 29.2704 60.0362 29.2148L60.0002 29.4622ZM58.8182 29.3524C59.2443 29.3524 59.6177 29.4065 60.0002 29.4622L60.0362 29.2148C59.655 29.1593 59.2648 29.1024 58.8182 29.1024V29.3524ZM19.3964 48.8987C14.4027 45.582 11.1525 41.1659 10.0684 35.2043L9.82247 35.2491C10.9202 41.2861 14.2155 45.7578 19.2581 49.107L19.3964 48.8987ZM37.6296 52.4355C31.1159 53.7622 25.0409 52.6572 19.3966 48.8988L19.258 49.1069C24.9591 52.9031 31.1022 54.0201 37.6795 52.6805L37.6296 52.4355ZM51.7404 44.701C48.0531 49.1188 43.2818 51.5498 37.6352 52.4345L37.6739 52.6815C43.3727 51.7886 48.2014 49.3313 51.9323 44.8612L51.7404 44.701ZM56.294 29.6859C56.9448 35.4299 55.427 40.5048 51.7425 44.6986L51.9303 44.8636C55.6639 40.614 57.2007 35.4679 56.5424 29.6577L56.294 29.6859ZM55.2871 28.6792C55.6081 28.7881 55.8041 28.8915 55.9472 29.0372C56.0905 29.1831 56.1922 29.3832 56.2994 29.7107L56.537 29.6329C56.426 29.2937 56.3096 29.0495 56.1256 28.8621C55.9414 28.6745 55.701 28.5557 55.3675 28.4424L55.2871 28.6792ZM37.147 20.6645C42.615 24.4512 48.7386 27.1236 55.2984 28.6824L55.3562 28.4392C48.8251 26.8872 42.7305 24.227 37.2893 20.459L37.147 20.6645ZM35.7226 19.5489C36.2132 19.9375 36.705 20.327 37.1423 20.6611L37.2941 20.4624C36.8588 20.13 36.3689 19.7419 35.8779 19.353L35.7226 19.5489ZM35.7238 19.5498L35.7239 19.5499L35.8766 19.352L35.8765 19.3519L35.7238 19.5498ZM35.7232 19.5494L35.7234 19.5495L35.8769 19.3522L35.8768 19.3521L35.7232 19.5494ZM35.7205 19.5472L35.7206 19.5473L35.8795 19.3543L35.8794 19.3542L35.7205 19.5472ZM34.3059 18.4391C34.7412 18.7716 35.2312 19.1597 35.7223 19.5487L35.8776 19.3527C35.3869 18.9641 34.8951 18.5745 34.4577 18.2404L34.3059 18.4391ZM33.6514 17.8836C33.8701 18.0507 34.0815 18.2124 34.2926 18.4274L34.471 18.2522C34.2458 18.0228 34.0208 17.8512 33.8031 17.685L33.6514 17.8836ZM32.9835 17.3164C33.2088 17.5458 33.4337 17.7174 33.6514 17.8836L33.8031 17.685C33.5844 17.5179 33.373 17.3562 33.1619 17.1412L32.9835 17.3164ZM32.4941 17.8836C32.7117 17.7174 32.9367 17.5458 33.1619 17.3164L32.9835 17.1412C32.7724 17.3562 32.561 17.5179 32.3423 17.685L32.4941 17.8836ZM31.8528 18.4274C32.0639 18.2124 32.2754 18.0507 32.4941 17.8836L32.3423 17.685C32.1246 17.8512 31.8997 18.0228 31.6744 18.2522L31.8528 18.4274ZM31.3133 18.8452C31.4961 18.7035 31.6719 18.5672 31.8395 18.4391L31.6878 18.2404C31.5193 18.3692 31.3427 18.5061 31.1601 18.6477L31.3133 18.8452ZM28.7743 20.6684C29.6621 20.1259 30.5484 19.4384 31.3133 18.8452L31.1601 18.6477C30.3931 19.2425 29.5178 19.9211 28.6439 20.4551L28.7743 20.6684ZM10.6338 28.6811C16.9696 26.9012 23.0917 24.4524 28.7784 20.6658L28.6398 20.4577C22.981 24.2257 16.885 26.6653 10.5662 28.4405L10.6338 28.6811ZM10.0705 29.4496C10.0705 29.2502 10.1186 29.1122 10.2074 28.9991C10.2996 28.8817 10.4438 28.7806 10.6567 28.6722L10.5433 28.4494C10.3199 28.5632 10.1368 28.6843 10.0108 28.8447C9.88143 29.0093 9.82045 29.2046 9.82045 29.4496H10.0705ZM10.0676 35.2C9.63631 33.2236 9.85119 31.2436 10.0695 29.4648L9.82139 29.4344C9.60336 31.2107 9.38187 33.2302 9.82333 35.2533L10.0676 35.2ZM43.6705 70.3337V67.0007H43.4205V70.3337H43.6705ZM43.6705 70.5559V70.3337H43.4205V70.5559H43.6705ZM57.7273 70.4309H43.5455V70.6809H57.7273V70.4309ZM56.9482 63.4345C56.7307 65.8718 56.5062 68.3524 57.6151 70.611L57.8395 70.5008C56.7665 68.3154 56.9784 65.9077 57.1972 63.4567L56.9482 63.4345ZM56.2 63.5706H57.0727V63.3206H56.2V63.5706ZM53.8 63.5706H56.2V63.3206H53.8V63.5706ZM48.6812 60.8534C49.3436 61.7528 50.0657 62.4336 50.904 62.8889C51.7429 63.3445 52.6913 63.5706 53.8 63.5706V63.3206C52.7269 63.3206 51.8207 63.1023 51.0233 62.6692C50.2252 62.2357 49.5292 61.5833 48.8825 60.7051L48.6812 60.8534ZM41.9581 54.6674C44.7769 56.2131 46.9433 58.199 48.6772 60.8477L48.8864 60.7108C47.1294 58.0268 44.9322 56.0131 42.0783 54.4482L41.9581 54.6674ZM41.1455 54.4606C41.2553 54.4606 41.409 54.4608 41.5609 54.4866C41.7155 54.5128 41.8475 54.5624 41.929 54.6453L42.1074 54.4702C41.9707 54.3309 41.7754 54.2694 41.6027 54.2401C41.4274 54.2103 41.2538 54.2106 41.1455 54.2106V54.4606ZM24.7475 54.4558C30.2245 56.0175 35.7028 56.0175 41.1797 54.4558L41.1112 54.2154C35.679 55.7643 30.2482 55.7643 24.8161 54.2154L24.7475 54.4558ZM23.9983 54.6453C24.0797 54.5624 24.2117 54.5128 24.3664 54.4866C24.5183 54.4608 24.672 54.4606 24.7818 54.4606V54.2106C24.6735 54.2106 24.4999 54.2103 24.3245 54.2401C24.1519 54.2694 23.9566 54.3309 23.8199 54.4702L23.9983 54.6453ZM14.431 67.9172C15.7329 62.1717 18.7676 57.7575 23.9729 54.6652L23.8452 54.4503C18.5778 57.5795 15.5034 62.0532 14.1872 67.8619L14.431 67.9172ZM16.4909 70.4309C15.0538 70.4309 14.2245 69.1803 14.4325 67.9097L14.1857 67.8693C13.9573 69.2651 14.8734 70.6809 16.4909 70.6809V70.4309ZM19.7636 70.4309H16.4909V70.6809H19.7636V70.4309ZM20.8545 70.4309H19.7636V70.6809H20.8545V70.4309ZM22.3818 70.4309H20.8545V70.6809H22.3818V70.4309ZM22.2568 69.6671V70.5559H22.5068V69.6671H22.2568ZM22.2568 68.7783V69.6671H22.5068V68.7783H22.2568ZM22.2568 66.5563V68.7783H22.5068V66.5563H22.2568ZM23.4727 65.3204C23.1164 65.3204 22.81 65.4419 22.5926 65.6633C22.3755 65.8845 22.2568 66.1953 22.2568 66.5563H22.5068C22.5068 66.2508 22.6063 66.0062 22.771 65.8385C22.9355 65.671 23.1746 65.5704 23.4727 65.5704V65.3204ZM24.6886 66.5563C24.6886 66.1953 24.57 65.8845 24.3528 65.6633C24.1355 65.4419 23.8291 65.3204 23.4727 65.3204V65.5704C23.7709 65.5704 24.01 65.671 24.1744 65.8385C24.3391 66.0062 24.4386 66.2508 24.4386 66.5563H24.6886ZM24.6886 67.4451V66.5563H24.4386V67.4451H24.6886ZM24.6886 67.6673V67.4451H24.4386V67.6673H24.6886ZM24.6886 70.5559V67.6673H24.4386V70.5559H24.6886ZM24.7818 70.4309H24.5636V70.6809H24.7818V70.4309ZM25 70.4309H24.7818V70.6809H25V70.4309ZM40.9273 70.4309H25V70.6809H40.9273V70.4309ZM41.4568 69.8893C41.4568 70.0928 41.4069 70.2223 41.329 70.3017C41.2515 70.3805 41.1256 70.4309 40.9273 70.4309V70.6809C41.1653 70.6809 41.3667 70.6201 41.5074 70.4768C41.6477 70.3339 41.7068 70.1302 41.7068 69.8893H41.4568ZM41.4568 66.3342V69.8893H41.7068V66.3342H41.4568ZM42.4545 65.0982C42.0956 65.0982 41.8349 65.2224 41.6704 65.4569C41.5121 65.6827 41.4568 65.9916 41.4568 66.3342H41.7068C41.7068 66.0101 41.7607 65.7636 41.8751 65.6005C41.9833 65.4462 42.159 65.3482 42.4545 65.3482V65.0982ZM43.6643 66.0731C43.5543 65.7372 43.4366 65.4853 43.2445 65.3223C43.0478 65.1553 42.7939 65.0982 42.4545 65.0982V65.3482C42.7698 65.3482 42.9522 65.4021 43.0828 65.5129C43.2179 65.6276 43.3184 65.8202 43.4267 66.1508L43.6643 66.0731ZM43.6705 66.7785V66.112H43.4205V66.7785H43.6705ZM43.6705 67.0007V66.7785H43.4205V67.0007H43.6705ZM58.263 57.6296L57.6085 59.6294L57.8461 59.7072L58.5006 57.7074L58.263 57.6296ZM61.1973 55.9899C59.8851 56.2126 58.7353 56.6648 58.2696 57.6134L58.494 57.7236C58.901 56.8946 59.9331 56.458 61.2391 56.2364L61.1973 55.9899ZM61.0932 55.2243V56.1131H61.3432V55.2243H61.0932ZM60.9853 54.1307C61.0402 54.5221 61.0932 54.9016 61.0932 55.2243H61.3432C61.3432 54.8806 61.2871 54.4823 61.2329 54.096L60.9853 54.1307ZM60.875 53.0024C60.875 53.3462 60.9311 53.7444 60.9853 54.1307L61.2329 54.096C61.178 53.7047 61.125 53.3252 61.125 53.0024H60.875ZM59.8199 50.6458C60.457 51.2946 60.875 52.1535 60.875 53.0024H61.125C61.125 52.0737 60.6703 51.155 59.9983 50.4706L59.8199 50.6458ZM57.8291 47.271C58.2707 48.3951 58.9319 49.5166 59.8108 50.6354L60.0074 50.481C59.1408 49.3779 58.493 48.2774 58.0618 47.1796L57.8291 47.271ZM61.8547 40.6579C58.7272 41.1129 56.709 44.0771 57.8275 47.2667L58.0634 47.1839C57.0001 44.1519 58.9092 41.3391 61.8907 40.9053L61.8547 40.6579ZM62.5273 40.4344C62.3069 40.4344 62.0406 40.4322 61.7835 40.694L61.9619 40.8692C62.1412 40.6866 62.3113 40.6844 62.5273 40.6844V40.4344ZM61.9721 38.3763C62.1892 39.0395 62.4023 39.913 62.4023 40.5594H62.6523C62.6523 39.8726 62.429 38.9686 62.2097 38.2986L61.9721 38.3763ZM61.863 37.9319C61.8906 38.016 61.9167 38.096 61.9361 38.1684C61.9559 38.2425 61.9659 38.2989 61.9659 38.3374H62.2159C62.2159 38.2649 62.1986 38.1824 62.1776 38.1037C62.1561 38.0234 62.1276 37.9367 62.1006 37.8542L61.863 37.9319ZM61.7477 37.4487C61.7477 37.5212 61.765 37.6037 61.7861 37.6824C61.8076 37.7627 61.836 37.8494 61.863 37.9319L62.1006 37.8542C62.0731 37.7701 62.047 37.6901 62.0276 37.6177C62.0077 37.5436 61.9977 37.4872 61.9977 37.4487H61.7477ZM61.6022 37.6711C61.7187 37.6118 61.7995 37.5737 61.8727 37.5737V37.3237C61.7278 37.3237 61.5904 37.3966 61.4887 37.4484L61.6022 37.6711ZM61.2182 37.7958C61.3631 37.7958 61.5005 37.7229 61.6022 37.6711L61.4887 37.4484C61.3722 37.5077 61.2914 37.5458 61.2182 37.5458V37.7958ZM60.5945 38.0142C60.8112 37.959 61.0425 37.9006 61.2749 37.7822L61.1615 37.5595C60.9575 37.6633 60.7524 37.716 60.5328 37.7719L60.5945 38.0142ZM59.9658 38.2266C60.1698 38.1228 60.3748 38.0701 60.5945 38.0142L60.5328 37.7719C60.3161 37.8271 60.0847 37.8855 59.8524 38.0039L59.9658 38.2266ZM59.5129 38.3447C59.5955 38.3167 59.6739 38.2901 59.7448 38.2704C59.8175 38.2502 59.8722 38.2402 59.9091 38.2402V37.9902C59.8369 37.9902 59.7552 38.008 59.6779 38.0295C59.5989 38.0515 59.5136 38.0805 59.4325 38.108L59.5129 38.3447ZM59.0364 38.4624C59.1086 38.4624 59.1902 38.4446 59.2675 38.4232C59.3466 38.4012 59.4319 38.3722 59.5129 38.3447L59.4325 38.108C59.3499 38.136 59.2716 38.1626 59.2006 38.1823C59.128 38.2025 59.0732 38.2124 59.0364 38.2124V38.4624ZM58.6402 38.5669C58.7228 38.5389 58.8011 38.5123 58.8721 38.4926C58.9448 38.4724 58.9995 38.4624 59.0364 38.4624V38.2124C58.9642 38.2124 58.8825 38.2302 58.8052 38.2517C58.7261 38.2737 58.6408 38.3027 58.5598 38.3302L58.6402 38.5669ZM58.1636 38.6846C58.2358 38.6846 58.3175 38.6668 58.3948 38.6454C58.4739 38.6234 58.5592 38.5944 58.6402 38.5669L58.5598 38.3302C58.4772 38.3582 58.3989 38.3848 58.3279 38.4045C58.2552 38.4247 58.2005 38.4346 58.1636 38.4346V38.6846ZM57.6341 39.004C57.6341 38.9897 57.6417 38.962 57.6759 38.9219C57.7091 38.8829 57.7589 38.8423 57.8197 38.8052C57.945 38.7286 58.0859 38.6846 58.1636 38.6846V38.4346C58.0232 38.4346 57.8368 38.5018 57.6894 38.5918C57.6138 38.638 57.5409 38.6947 57.4855 38.7598C57.431 38.8238 57.3841 38.9073 57.3841 39.004H57.6341ZM45.1278 52.6702C51.0465 49.768 55.2142 45.3004 57.6257 39.049L57.3925 38.959C55.004 45.1507 50.8808 49.5708 45.0177 52.4458L45.1278 52.6702ZM44.9437 52.7567C44.9727 52.7272 44.9896 52.7109 45.0084 52.6994C45.0233 52.6902 45.0418 52.683 45.0727 52.683V52.433C44.9078 52.433 44.8209 52.525 44.7654 52.5815L44.9437 52.7567ZM44.6364 52.9052C44.8013 52.9052 44.8882 52.8132 44.9437 52.7567L44.7654 52.5815C44.7364 52.611 44.7195 52.6273 44.7007 52.6388C44.6857 52.648 44.6673 52.6552 44.6364 52.6552V52.9052ZM44.4182 53.0024C44.4182 53.1274 44.4183 53.1274 44.4183 53.1274C44.4183 53.1274 44.4184 53.1274 44.4184 53.1274C44.4185 53.1274 44.4186 53.1274 44.4187 53.1274C44.4189 53.1274 44.4191 53.1274 44.4194 53.1274C44.4198 53.1274 44.4203 53.1274 44.4209 53.1274C44.422 53.1273 44.4233 53.1273 44.4249 53.1273C44.428 53.1272 44.4319 53.127 44.4366 53.1266C44.446 53.1259 44.4585 53.1246 44.4732 53.1222C44.502 53.1173 44.5423 53.1073 44.584 53.086C44.6263 53.0645 44.672 53.0303 44.7069 52.9771C44.7421 52.9232 44.7614 52.8571 44.7614 52.7802H44.5114C44.5114 52.8143 44.5033 52.8316 44.4977 52.8402C44.4916 52.8494 44.4828 52.857 44.4706 52.8632C44.4577 52.8697 44.4435 52.8736 44.4314 52.8757C44.4256 52.8767 44.4211 52.8771 44.4185 52.8773C44.4172 52.8774 44.4165 52.8774 44.4164 52.8774C44.4163 52.8774 44.4165 52.8774 44.4168 52.8774C44.4169 52.8774 44.4171 52.8774 44.4173 52.8774C44.4175 52.8774 44.4176 52.8774 44.4177 52.8774C44.4178 52.8774 44.4179 52.8774 44.4179 52.8774C44.418 52.8774 44.418 52.8774 44.4181 52.8774C44.4181 52.8774 44.4182 52.8774 44.4182 53.0024ZM51.0654 59.3734C49.3155 56.9231 47.1217 54.4631 44.482 52.8949L44.3543 53.1099C46.951 54.6525 49.1209 57.0807 50.8619 59.5187L51.0654 59.3734ZM52.9273 60.4321C52.6363 60.4321 52.2794 60.2812 51.93 60.0623C51.5847 59.8459 51.2649 59.5745 51.0528 59.3585L50.8745 59.5336C51.0987 59.762 51.4335 60.0462 51.7973 60.2741C52.157 60.4996 52.5637 60.6821 52.9273 60.6821V60.4321ZM56.2 60.4321H52.9273V60.6821H56.2V60.4321ZM57.5091 60.4321H56.2V60.6821H57.5091V60.4321ZM57.4994 60.0738C57.4724 60.1563 57.4439 60.243 57.4224 60.3234C57.4014 60.402 57.3841 60.4845 57.3841 60.5571H57.6341C57.6341 60.5185 57.6441 60.4621 57.6639 60.388C57.6833 60.3156 57.7095 60.2357 57.737 60.1515L57.4994 60.0738ZM57.4956 60.0881L57.4956 60.0882L57.7408 60.1372L57.7408 60.1371L57.4956 60.0881ZM57.4996 60.073L57.4996 60.0731L57.7368 60.1521L57.7368 60.1521L57.4996 60.073ZM57.6023 59.6683C57.6023 59.7068 57.5923 59.7632 57.5724 59.8373C57.5531 59.9097 57.5269 59.9896 57.4994 60.0737L57.737 60.1515C57.764 60.0689 57.7924 59.9822 57.8139 59.9019C57.835 59.8233 57.8523 59.7408 57.8523 59.6683H57.6023ZM64.2727 63.3484H64.9273V63.0984H64.2727V63.3484ZM62.8386 61.8902C62.8386 62.1704 62.8522 62.4031 62.8925 62.5931C62.933 62.7845 63.0023 62.9413 63.1199 63.061C63.2377 63.181 63.3923 63.2519 63.5811 63.2934C63.7685 63.3346 63.9975 63.3484 64.2727 63.3484V63.0984C64.0025 63.0984 63.7952 63.0845 63.6348 63.0492C63.4759 63.0143 63.3714 62.9603 63.2983 62.8859C63.225 62.8112 63.1715 62.7041 63.1371 62.5413C63.1023 62.3773 63.0886 62.1656 63.0886 61.8902H62.8386ZM62.8386 61.0014V61.8902H63.0886V61.0014H62.8386ZM62.8386 59.6683V61.0014H63.0886V59.6683H62.8386ZM61.4364 58.2379C62.2379 58.2379 62.8386 58.8464 62.8386 59.6683H63.0886C63.0886 58.7126 62.3803 57.9879 61.4364 57.9879V58.2379ZM60.0305 59.4759C60.2359 58.6391 60.8433 58.2379 61.4364 58.2379V57.9879C60.7204 57.9879 60.0187 58.4755 59.7877 59.4163L60.0305 59.4759ZM59.9227 60.2478C59.9764 59.9742 60.0341 59.6831 60.0341 59.4461H59.7841C59.7841 59.6534 59.7327 59.9177 59.6774 60.1996L59.9227 60.2478ZM59.9233 60.2443L59.9233 60.2442L59.6767 60.2031L59.6767 60.2032L59.9233 60.2443ZM59.9233 60.2444L59.9233 60.2443L59.6767 60.2032L59.6767 60.2033L59.9233 60.2444ZM59.8159 61.0014C59.8159 60.7941 59.8673 60.5298 59.9226 60.2479L59.6773 60.1997C59.6236 60.4733 59.5659 60.7644 59.5659 61.0014H59.8159ZM59.5977 62.779C59.5977 62.1135 59.5982 61.6865 59.8097 61.0403L59.5721 60.9626C59.3473 61.6495 59.3477 62.1113 59.3477 62.779H59.5977ZM59.3795 67.2229C59.3795 65.6668 59.3797 64.3419 59.5965 62.7964L59.3489 62.7617C59.1294 64.3269 59.1295 65.6683 59.1295 67.2229H59.3795ZM62.5413 70.4317C61.5723 70.322 60.7844 70.0497 60.2393 69.5474C59.6981 69.0487 59.3795 68.3079 59.3795 67.2229H59.1295C59.1295 68.36 59.4656 69.1745 60.0698 69.7312C60.6702 70.2844 61.5186 70.5675 62.5132 70.6801L62.5413 70.4317ZM63.6182 70.4309H62.5273V70.6809H63.6182V70.4309ZM63.8364 70.4309H63.6182V70.6809H63.8364V70.4309ZM64.2727 70.4309H63.8364V70.6809H64.2727V70.4309ZM65.3636 70.4309H64.2727V70.6809H65.3636V70.4309ZM66.9877 68.9707C66.7846 69.7982 66.1801 70.219 65.3328 70.4347L65.3945 70.677C66.2927 70.4483 66.9973 69.9804 67.2305 69.0303L66.9877 68.9707ZM67.4205 65.2232C67.4205 66.544 67.2042 67.8676 66.9864 68.9764L67.2318 69.0246C67.4504 67.9115 67.6705 66.5687 67.6705 65.2232H67.4205ZM65.8 63.3484C66.3084 63.3484 66.7095 63.5541 66.9857 63.8866C67.2637 64.2212 67.4205 64.6913 67.4205 65.2232H67.6705C67.6705 64.6441 67.4999 64.1143 67.178 63.7268C66.8542 63.3371 66.3825 63.0984 65.8 63.0984V63.3484ZM64.9273 63.3484H65.8V63.0984H64.9273V63.3484ZM70.704 46.5077C69.6275 48.9197 67.9058 50.4575 65.5211 51.7821L65.6425 52.0007C68.0579 50.659 69.8271 49.086 70.9323 46.6096L70.704 46.5077ZM69.6483 43.1005C70.7168 43.971 71.3239 45.245 70.706 46.5036L70.9304 46.6138C71.6216 45.206 70.9196 43.8137 69.8062 42.9067L69.6483 43.1005ZM66.3347 43.9696C66.7575 43.4313 67.2816 43.0601 67.8516 42.9018C68.4202 42.7439 69.0426 42.7952 69.6706 43.1149L69.784 42.8922C69.1029 42.5453 68.4162 42.4855 67.7847 42.6609C67.1548 42.8359 66.5879 43.2424 66.1381 43.8151L66.3347 43.9696ZM64.1835 43.9799C64.5242 44.3268 64.8816 44.5173 65.2545 44.5173C65.6275 44.5173 65.9849 44.3268 66.3256 43.9799L66.1472 43.8048C65.8333 44.1245 65.5361 44.2673 65.2545 44.2673C64.973 44.2673 64.6758 44.1245 64.3619 43.8048L64.1835 43.9799ZM63.9654 43.7577L64.1835 43.9799L64.3619 43.8048L64.1437 43.5826L63.9654 43.7577ZM61.2653 43.1193C62.3138 42.6922 63.3396 42.9101 63.9539 43.7443L64.1552 43.596C63.4604 42.6526 62.3044 42.4261 61.171 42.8878L61.2653 43.1193ZM59.5977 45.4477C59.5977 44.3938 60.2154 43.547 61.2653 43.1193L61.171 42.8878C60.0392 43.3489 59.3477 44.2796 59.3477 45.4477H59.5977ZM59.694 45.7259C59.636 45.6077 59.5977 45.5242 59.5977 45.4477H59.3477C59.3477 45.5935 59.4185 45.7321 59.4696 45.8361L59.694 45.7259ZM59.8159 46.1143C59.8159 45.9686 59.7451 45.8299 59.694 45.7259L59.4696 45.8361C59.5276 45.9543 59.5659 46.0379 59.5659 46.1143H59.8159ZM60.2395 47.1702C60.1299 46.9471 60.0226 46.7284 59.9425 46.538C59.8598 46.3414 59.8159 46.1968 59.8159 46.1143H59.5659C59.5659 46.254 59.6312 46.4427 59.7121 46.635C59.7956 46.8334 59.9064 47.0591 60.0151 47.2804L60.2395 47.1702ZM64.9888 51.7826C63.0402 50.6801 61.3142 49.14 60.237 47.1654L60.0175 47.2851C61.1222 49.3101 62.8871 50.8807 64.8657 52.0002L64.9888 51.7826ZM65.5818 51.7664H64.9273V52.0164H65.5818V51.7664ZM23.2546 29.3246C21.4405 29.3246 20.084 30.7101 19.858 32.3208L20.1056 32.3555C20.316 30.8554 21.5777 29.5746 23.2546 29.5746V29.3246ZM26.4325 32.1361C26.5507 31.4137 26.1942 30.707 25.6004 30.1886C25.0053 29.6692 24.1581 29.3246 23.2546 29.3246V29.5746C24.0965 29.5746 24.8856 29.8966 25.436 30.377C25.9877 30.8585 26.2857 31.485 26.1857 32.0957L26.4325 32.1361ZM25.4364 33.5741C25.7968 33.5741 26.0607 33.4484 26.2247 33.1812C26.3802 32.9279 26.4341 32.5646 26.4341 32.1159H26.1841C26.1841 32.556 26.1289 32.8594 26.0117 33.0504C25.9029 33.2276 25.7305 33.3241 25.4364 33.3241V33.5741ZM24.2267 32.5992C24.3399 32.9452 24.5133 33.2457 24.7269 33.4322C24.9449 33.6225 25.2173 33.7009 25.4931 33.5605L25.3797 33.3377C25.2191 33.4195 25.0551 33.3868 24.8913 33.2438C24.7231 33.097 24.5692 32.842 24.4643 32.5214L24.2267 32.5992ZM23.0766 31.5677C23.3657 31.4696 23.5902 31.5201 23.7714 31.6815C23.9619 31.8513 24.1174 32.1556 24.2241 32.5901L24.4669 32.5305C24.3553 32.0762 24.1836 31.714 23.9377 31.4949C23.6826 31.2675 23.3616 31.2069 22.9962 31.331L23.0766 31.5677ZM22.2887 32.5603C22.2887 32.2591 22.3854 32.0685 22.5256 31.9258C22.6724 31.7763 22.871 31.6738 23.0931 31.5607L22.9797 31.338C22.7654 31.4471 22.5277 31.5668 22.3472 31.7506C22.1601 31.9411 22.0387 32.195 22.0387 32.5603H22.2887ZM20.8546 33.7963C21.1942 33.7963 21.4991 33.739 21.7486 33.5484C21.9981 33.3579 22.1723 33.0494 22.285 32.5901L22.0423 32.5305C21.9368 32.9601 21.7837 33.207 21.5969 33.3498C21.41 33.4925 21.1695 33.5463 20.8546 33.5463V33.7963ZM19.8568 32.3381C19.8568 32.6817 19.9125 33.0387 20.063 33.3145C20.2175 33.5978 20.4742 33.7963 20.8546 33.7963V33.5463C20.5804 33.5463 20.4007 33.4115 20.2825 33.1948C20.1602 32.9707 20.1068 32.6611 20.1068 32.3381H19.8568ZM35.0114 30.9053C36.0872 31.1244 36.878 31.5047 37.427 32.0904C37.9753 32.6754 38.2955 33.4795 38.4029 34.5724L38.6517 34.548C38.5408 33.4189 38.2065 32.5565 37.6094 31.9194C37.0129 31.2831 36.1673 30.8856 35.0613 30.6603L35.0114 30.9053ZM33.6705 30.672C34.1373 30.9097 34.6031 30.9078 35.0364 30.9078V30.6578C34.5969 30.6578 34.19 30.656 33.784 30.4492L33.6705 30.672ZM33.0727 30.6856H33.7273V30.4356H33.0727V30.6856ZM32.2 30.6856H33.0727V30.4356H32.2V30.6856ZM30.8909 30.6856H32.2V30.4356H30.8909V30.6856ZM27.5245 34.7712C27.4176 33.5735 27.6858 32.609 28.2598 31.9181C28.8337 31.2274 29.727 30.7939 30.9024 30.6851L30.8794 30.4362C29.6548 30.5495 28.6935 31.0049 28.0675 31.7584C27.4415 32.5118 27.1642 33.5471 27.2755 34.7935L27.5245 34.7712ZM27.737 36.521C27.5255 35.8748 27.525 35.4478 27.525 34.7824H27.275C27.275 35.4501 27.2745 35.9118 27.4994 36.5988L27.737 36.521ZM34.5544 40.4431C31.7974 41.523 28.5956 39.7993 27.7391 36.5283L27.4973 36.5916C28.3862 39.9865 31.7298 41.8179 34.6456 40.6759L34.5544 40.4431ZM38.4027 34.5704C38.617 37.189 37.1164 39.7898 34.5692 40.4383L34.6308 40.6806C37.32 39.9959 38.8739 37.264 38.6519 34.55L38.4027 34.5704ZM29.463 35.9322C29.9078 37.2911 30.8032 38.4397 32.1598 38.9003L32.2402 38.6635C30.9786 38.2353 30.1286 37.162 29.7006 35.8545L29.463 35.9322ZM29.2514 35.0597C29.3568 35.2743 29.4072 35.4305 29.4319 35.5564C29.4566 35.6822 29.4568 35.7824 29.4568 35.8933H29.7068C29.7068 35.7821 29.707 35.6601 29.6772 35.5082C29.6474 35.3563 29.5886 35.1792 29.4758 34.9495L29.2514 35.0597ZM31.0882 32.6594C30.4167 32.7733 29.945 33.0054 29.6457 33.4016C29.3487 33.7949 29.2386 34.3278 29.2386 35.0046H29.4886C29.4886 34.3481 29.5968 33.8812 29.8452 33.5523C30.0914 33.2264 30.4924 33.0141 31.13 32.9058L31.0882 32.6594ZM31.9818 32.6576H31.1091V32.9076H31.9818V32.6576ZM33.0727 32.6576H31.9818V32.9076H33.0727V32.6576ZM33.7273 32.6576H33.0727V32.9076H33.7273V32.6576ZM34.3634 32.7551C34.1504 32.7063 33.9401 32.6576 33.7273 32.6576V32.9076C33.9067 32.9076 34.0887 32.9487 34.3076 32.9988L34.3634 32.7551ZM35.2545 32.8798C34.9098 32.8798 34.628 32.8156 34.3634 32.7551L34.3076 32.9988C34.572 33.0593 34.8786 33.1298 35.2545 33.1298V32.8798ZM36.4577 34.0607C36.2389 33.6151 36.0017 33.1264 35.2947 32.8864L35.2144 33.1232C35.8165 33.3276 36.0156 33.7276 36.2332 34.1709L36.4577 34.0607ZM35.3528 37.7481C36.2394 36.6195 36.6944 35.474 36.4688 34.0956L36.2221 34.136C36.4329 35.4239 36.0151 36.5003 35.1562 37.5937L35.3528 37.7481ZM32.1598 38.9003C32.8369 39.1301 33.467 39.1329 34.0166 38.9267C34.566 38.7206 35.0231 38.31 35.3622 37.7344L35.1468 37.6075C34.8315 38.1428 34.4158 38.5099 33.9288 38.6926C33.4421 38.8753 32.8722 38.8781 32.2402 38.6635L32.1598 38.9003ZM40.4909 33.7963C40.8281 33.7963 41.1328 33.7399 41.3554 33.578C41.5859 33.4102 41.7068 33.1458 41.7068 32.7825H41.4568C41.4568 33.0859 41.3595 33.2658 41.2083 33.3758C41.0491 33.4916 40.8083 33.5463 40.4909 33.5463V33.7963ZM39.0696 32.3932C39.2849 32.8316 39.456 33.1823 39.6597 33.4195C39.7641 33.5409 39.88 33.6367 40.0188 33.7013C40.1577 33.766 40.3127 33.7963 40.4909 33.7963V33.5463C40.3418 33.5463 40.2241 33.5211 40.1243 33.4747C40.0246 33.4282 39.9359 33.3573 39.8494 33.2565C39.6713 33.0493 39.5151 32.7334 39.294 32.283L39.0696 32.3932ZM42.4545 29.1024C40.636 29.1024 39.2823 30.493 39.0577 32.3229L39.3059 32.3534C39.5176 30.6281 40.7822 29.3524 42.4545 29.3524V29.1024ZM45.8523 32.3381C45.8523 30.4826 44.2598 29.1024 42.4545 29.1024V29.3524C44.1402 29.3524 45.6023 30.6385 45.6023 32.3381H45.8523ZM44.8545 33.5741C45.2135 33.5741 45.4742 33.4499 45.6387 33.2154C45.797 32.9896 45.8523 32.6807 45.8523 32.3381H45.6023C45.6023 32.6621 45.5484 32.9087 45.434 33.0718C45.3258 33.2261 45.1501 33.3241 44.8545 33.3241V33.5741ZM43.6448 32.5992C43.7526 32.9285 43.869 33.2349 44.0563 33.4256C44.1537 33.5249 44.2718 33.5947 44.4165 33.6207C44.5592 33.6464 44.7177 33.6276 44.8947 33.5675L44.8144 33.3307C44.6641 33.3817 44.5499 33.3907 44.4607 33.3747C44.3736 33.359 44.3008 33.3178 44.2346 33.2504C44.0946 33.1078 43.9928 32.8587 43.8824 32.5214L43.6448 32.5992ZM42.6727 31.5743C42.9709 31.5743 43.21 31.675 43.3744 31.8424C43.5391 32.0101 43.6386 32.2548 43.6386 32.5603H43.8886C43.8886 32.1993 43.77 31.8884 43.5528 31.6673C43.3355 31.4459 43.0291 31.3243 42.6727 31.3243V31.5743ZM41.7068 32.5603C41.7068 32.2548 41.8063 32.0101 41.971 31.8424C42.1355 31.675 42.3746 31.5743 42.6727 31.5743V31.3243C42.3164 31.3243 42.01 31.4459 41.7926 31.6673C41.5755 31.8884 41.4568 32.1993 41.4568 32.5603H41.7068ZM41.7068 32.7825V32.5603H41.4568V32.7825H41.7068Z" fill="#F6CAC1"/>
</g>
</g>
</svg>
