<svg width="214" height="32" viewBox="0 0 214 32" fill="none" xmlns="http://www.w3.org/2000/svg">
<g id="logo/1">
<path id="Vector" d="M214 29.8392C214 30.3537 213.846 30.7481 213.537 31.0225C213.228 31.2969 212.868 31.4341 212.456 31.4341H191.096C190.615 31.4341 190.221 31.2797 189.912 30.9711C189.637 30.6281 189.5 30.2508 189.5 29.8392C189.5 29.4277 189.637 29.0675 189.912 28.7588C190.186 28.4502 190.581 28.2958 191.096 28.2958H193.154V3.13826H191.096C190.615 3.13826 190.221 2.98392 189.912 2.67524C189.637 2.33226 189.5 1.95498 189.5 1.54341C189.5 1.13183 189.637 0.771701 189.912 0.46302C190.186 0.15434 190.581 0 191.096 0H211.272C211.718 0 212.096 0.137191 212.404 0.411573C212.713 0.65166 212.868 1.04609 212.868 1.59485V6.37942C212.868 6.89389 212.713 7.28832 212.404 7.5627C212.096 7.83708 211.735 7.97428 211.323 7.97428H210.912C210.466 7.97428 210.088 7.85423 209.779 7.61415C209.471 7.33976 209.316 6.92819 209.316 6.37942V3.13826H196.706V13.582H203.5V12.2444C203.5 11.7299 203.654 11.3355 203.963 11.0611C204.272 10.7867 204.632 10.6495 205.044 10.6495H205.456C205.902 10.6495 206.279 10.7867 206.588 11.0611C206.897 11.3012 207.051 11.6956 207.051 12.2444V18.1093C207.051 18.6238 206.897 19.0182 206.588 19.2926C206.279 19.567 205.919 19.7042 205.507 19.7042H205.096C204.649 19.7042 204.272 19.5841 203.963 19.3441C203.654 19.0697 203.5 18.6581 203.5 18.1093V16.7203H196.706V28.2958H210.448V24.2315C210.448 23.717 210.603 23.3226 210.912 23.0482C211.221 22.7739 211.581 22.6367 211.993 22.6367H212.404C212.85 22.6367 213.228 22.7739 213.537 23.0482C213.846 23.2883 214 23.6827 214 24.2315V29.8392Z" fill="#212121"/>
<path id="Vector_2" d="M186.032 29.8392C186.032 30.3537 185.877 30.7481 185.569 31.0225C185.26 31.2969 184.9 31.4341 184.488 31.4341H164.363C163.848 31.4341 163.454 31.2797 163.179 30.9711C162.905 30.6624 162.767 30.3023 162.767 29.8907C162.767 29.4448 162.887 29.0675 163.128 28.7588C163.402 28.4502 163.814 28.2958 164.363 28.2958H166.73V3.13826H164.363C163.848 3.13826 163.454 2.98392 163.179 2.67524C162.905 2.36656 162.767 2.00643 162.767 1.59485C162.767 1.14898 162.887 0.771701 163.128 0.46302C163.402 0.15434 163.814 0 164.363 0H173.576C174.056 0 174.434 0.17149 174.708 0.514469C175.017 0.823151 175.172 1.18328 175.172 1.59485C175.172 2.00643 175.034 2.36656 174.76 2.67524C174.485 2.98392 174.091 3.13826 173.576 3.13826H170.282V28.2958H182.48V24.2315C182.48 23.717 182.635 23.3226 182.944 23.0482C183.252 22.7739 183.613 22.6367 184.025 22.6367H184.436C184.882 22.6367 185.26 22.7739 185.569 23.0482C185.877 23.2883 186.032 23.6827 186.032 24.2315V29.8392Z" fill="#212121"/>
<path id="Vector_3" d="M158.99 29.8392C158.99 30.3537 158.835 30.7481 158.526 31.0225C158.218 31.2969 157.857 31.4341 157.446 31.4341H137.321C136.806 31.4341 136.411 31.2797 136.137 30.9711C135.862 30.6624 135.725 30.3023 135.725 29.8907C135.725 29.4448 135.845 29.0675 136.085 28.7588C136.36 28.4502 136.772 28.2958 137.321 28.2958H139.688V3.13826H137.321C136.806 3.13826 136.411 2.98392 136.137 2.67524C135.862 2.36656 135.725 2.00643 135.725 1.59485C135.725 1.14898 135.845 0.771701 136.085 0.46302C136.36 0.15434 136.772 0 137.321 0H146.534C147.014 0 147.392 0.17149 147.666 0.514469C147.975 0.823151 148.129 1.18328 148.129 1.59485C148.129 2.00643 147.992 2.36656 147.718 2.67524C147.443 2.98392 147.049 3.13826 146.534 3.13826H143.24V28.2958H155.438V24.2315C155.438 23.717 155.593 23.3226 155.901 23.0482C156.21 22.7739 156.571 22.6367 156.982 22.6367H157.394C157.84 22.6367 158.218 22.7739 158.526 23.0482C158.835 23.2883 158.99 23.6827 158.99 24.2315V29.8392Z" fill="#212121"/>
<path id="Vector_4" d="M132.874 29.8392C132.874 30.3537 132.719 30.7481 132.411 31.0225C132.102 31.2969 131.742 31.4341 131.33 31.4341H109.97C109.489 31.4341 109.095 31.2797 108.786 30.9711C108.511 30.6281 108.374 30.2508 108.374 29.8392C108.374 29.4277 108.511 29.0675 108.786 28.7588C109.06 28.4502 109.455 28.2958 109.97 28.2958H112.028V3.13826H109.97C109.489 3.13826 109.095 2.98392 108.786 2.67524C108.511 2.33226 108.374 1.95498 108.374 1.54341C108.374 1.13183 108.511 0.771701 108.786 0.46302C109.06 0.15434 109.455 0 109.97 0H130.146C130.592 0 130.97 0.137191 131.278 0.411573C131.587 0.65166 131.742 1.04609 131.742 1.59485V6.37942C131.742 6.89389 131.587 7.28832 131.278 7.5627C130.97 7.83708 130.609 7.97428 130.197 7.97428H129.786C129.34 7.97428 128.962 7.85423 128.653 7.61415C128.345 7.33976 128.19 6.92819 128.19 6.37942V3.13826H115.58V13.582H122.374V12.2444C122.374 11.7299 122.528 11.3355 122.837 11.0611C123.146 10.7867 123.506 10.6495 123.918 10.6495H124.33C124.776 10.6495 125.153 10.7867 125.462 11.0611C125.771 11.3012 125.925 11.6956 125.925 12.2444V18.1093C125.925 18.6238 125.771 19.0182 125.462 19.2926C125.153 19.567 124.793 19.7042 124.381 19.7042H123.97C123.523 19.7042 123.146 19.5841 122.837 19.3441C122.528 19.0697 122.374 18.6581 122.374 18.1093V16.7203H115.58V28.2958H129.322V24.2315C129.322 23.717 129.477 23.3226 129.786 23.0482C130.095 22.7739 130.455 22.6367 130.867 22.6367H131.278C131.724 22.6367 132.102 22.7739 132.411 23.0482C132.719 23.2883 132.874 23.6827 132.874 24.2315V29.8392Z" fill="#212121"/>
<path id="Vector_5" d="M105.626 6.37942C105.626 6.89389 105.472 7.28832 105.163 7.5627C104.854 7.83708 104.494 7.97428 104.082 7.97428H103.67C103.224 7.97428 102.847 7.85423 102.538 7.61415C102.229 7.33976 102.075 6.92819 102.075 6.37942V3.13826H95.2805V28.2958H98.4202C98.9349 28.2958 99.3295 28.4502 99.604 28.7588C99.8785 29.0675 100.016 29.4277 100.016 29.8392C100.016 30.2851 99.8785 30.6624 99.604 30.9711C99.3638 31.2797 98.9692 31.4341 98.4202 31.4341H88.5893C88.109 31.4341 87.7143 31.2797 87.4055 30.9711C87.131 30.6281 86.9938 30.2508 86.9938 29.8392C86.9938 29.4277 87.131 29.0675 87.4055 28.7588C87.68 28.4502 88.0746 28.2958 88.5893 28.2958H91.729V3.13826H84.9349V6.37942C84.9349 6.89389 84.7805 7.28832 84.4717 7.5627C84.1629 7.83708 83.8026 7.97428 83.3908 7.97428H82.9791C82.533 7.97428 82.1555 7.85423 81.8467 7.61415C81.5379 7.33976 81.3835 6.92819 81.3835 6.37942V1.59485C81.3835 1.08038 81.5379 0.685958 81.8467 0.411573C82.1555 0.137191 82.5158 0 82.9276 0H104.03C104.477 0 104.854 0.137191 105.163 0.411573C105.472 0.65166 105.626 1.04609 105.626 1.59485V6.37942Z" fill="#212121"/>
<path id="Vector_6" d="M78.7901 29.8392C78.7901 30.3537 78.6357 30.7481 78.3269 31.0225C78.0181 31.2969 77.6578 31.4341 77.246 31.4341H55.8858C55.4054 31.4341 55.0108 31.2797 54.702 30.9711C54.4275 30.6281 54.2902 30.2508 54.2902 29.8392C54.2902 29.4277 54.4275 29.0675 54.702 28.7588C54.9765 28.4502 55.3711 28.2958 55.8858 28.2958H57.9446V3.13826H55.8858C55.4054 3.13826 55.0108 2.98392 54.702 2.67524C54.4275 2.33226 54.2902 1.95498 54.2902 1.54341C54.2902 1.13183 54.4275 0.771701 54.702 0.46302C54.9765 0.15434 55.3711 0 55.8858 0H76.0622C76.5083 0 76.8857 0.137191 77.1945 0.411573C77.5034 0.65166 77.6578 1.04609 77.6578 1.59485V6.37942C77.6578 6.89389 77.5034 7.28832 77.1945 7.5627C76.8857 7.83708 76.5254 7.97428 76.1137 7.97428H75.7019C75.2558 7.97428 74.8784 7.85423 74.5695 7.61415C74.2607 7.33976 74.1063 6.92819 74.1063 6.37942V3.13826H61.4961V13.582H68.2902V12.2444C68.2902 11.7299 68.4446 11.3355 68.7534 11.0611C69.0622 10.7867 69.4225 10.6495 69.8343 10.6495H70.246C70.6921 10.6495 71.0696 10.7867 71.3784 11.0611C71.6872 11.3012 71.8416 11.6956 71.8416 12.2444V18.1093C71.8416 18.6238 71.6872 19.0182 71.3784 19.2926C71.0696 19.567 70.7093 19.7042 70.2975 19.7042H69.8857C69.4397 19.7042 69.0622 19.5841 68.7534 19.3441C68.4446 19.0697 68.2902 18.6581 68.2902 18.1093V16.7203H61.4961V28.2958H75.2387V24.2315C75.2387 23.717 75.3931 23.3226 75.7019 23.0482C76.0107 22.7739 76.371 22.6367 76.7828 22.6367H77.1945C77.6406 22.6367 78.0181 22.7739 78.3269 23.0482C78.6357 23.2883 78.7901 23.6827 78.7901 24.2315V29.8392Z" fill="#212121"/>
<path id="Vector_7" d="M52.6744 26.701C52.6744 28.0043 52.3313 29.1533 51.645 30.1479C50.7872 31.3826 49.6548 32 48.248 32C46.6009 32 45.3485 31.3826 44.4906 30.1479C43.6671 28.9132 43.2553 27.4212 43.2553 25.672V21.1961C43.2553 20.1329 42.7063 19.224 41.6083 18.4695C40.5446 17.6806 39.3264 17.2862 37.9539 17.2862H33.9392V28.2958H35.6892C36.2039 28.2958 36.5985 28.4502 36.873 28.7588C37.1475 29.0675 37.2848 29.4277 37.2848 29.8392C37.2848 30.2851 37.1475 30.6624 36.873 30.9711C36.6328 31.2797 36.2382 31.4341 35.6892 31.4341H28.6378C28.1574 31.4341 27.7628 31.2797 27.4539 30.9711C27.1794 30.6281 27.0422 30.2508 27.0422 29.8392C27.0422 29.4277 27.1794 29.0675 27.4539 28.7588C27.7284 28.4502 28.1231 28.2958 28.6378 28.2958H30.3878V3.13826H28.6378C28.1574 3.13826 27.7628 2.98392 27.4539 2.67524C27.1794 2.33226 27.0422 1.95498 27.0422 1.54341C27.0422 1.13183 27.1794 0.771701 27.4539 0.46302C27.7284 0.15434 28.1231 0 28.6378 0H38.5715C41.2823 0 43.5642 0.874598 45.4171 2.62379C47.27 4.33869 48.1965 6.34512 48.1965 8.64309C48.1965 9.94641 47.9048 11.164 47.3215 12.2958C46.5666 13.7363 45.3999 14.9025 43.8215 15.7942C44.8509 16.5831 45.6058 17.4748 46.0862 18.4695C46.5666 19.4298 46.8068 20.3387 46.8068 21.1961V25.672C46.8068 26.4266 46.9097 27.1468 47.1156 27.8328C47.3215 28.5188 47.699 28.8617 48.248 28.8617C48.5911 28.8617 48.8141 28.6217 48.9171 28.1415C49.0543 27.627 49.123 27.1468 49.123 26.701C49.123 26.1865 49.2774 25.7921 49.5862 25.5177C49.895 25.2433 50.2553 25.1061 50.6671 25.1061H51.0788C51.5249 25.1061 51.9024 25.2433 52.2112 25.5177C52.52 25.7578 52.6744 26.1522 52.6744 26.701ZM44.645 8.64309C44.645 7.33976 44.0446 6.12219 42.8436 4.99035C41.5397 3.75563 39.9612 3.13826 38.1083 3.13826H33.9392V14.1479H38.0568C40.0127 14.1479 41.5911 13.582 42.7921 12.4502C44.0274 11.284 44.645 10.015 44.645 8.64309Z" fill="#212121"/>
<path id="Vector_8" d="M23.6764 22.6881C23.6764 24.9861 22.8357 27.0268 21.1543 28.8103C19.5073 30.5595 17.5686 31.4341 15.3382 31.4341H1.59558C1.11519 31.4341 0.720584 31.2797 0.411762 30.9711C0.137253 30.6281 0 30.2508 0 29.8392C0 29.4277 0.137253 29.0675 0.411762 28.7588C0.68627 28.4502 1.08088 28.2958 1.59558 28.2958H3.55146V3.13826H1.59558C1.11519 3.13826 0.720584 2.98392 0.411762 2.67524C0.137253 2.33226 0 1.95498 0 1.54341C0 1.13183 0.137253 0.771701 0.411762 0.46302C0.68627 0.15434 1.08088 0 1.59558 0H14.2058C16.6421 0 18.6837 0.8403 20.3308 2.5209C21.8406 4.06431 22.5955 5.8821 22.5955 7.97428C22.5955 9.55198 22.0808 10.9753 21.0514 12.2444C20.0563 13.4791 18.7181 14.388 17.0367 14.9711C18.9926 15.2797 20.5881 16.2229 21.8234 17.8006C23.0587 19.3441 23.6764 20.9732 23.6764 22.6881ZM19.044 7.97428C19.044 6.91104 18.6494 5.89925 17.8602 4.9389C16.8994 3.73848 15.6813 3.13826 14.2058 3.13826H7.10291V13.5305H12.9191C14.8063 13.5305 16.3333 12.9132 17.4999 11.6785C18.5293 10.5809 19.044 9.3462 19.044 7.97428ZM20.1249 22.7396C20.1249 21.3333 19.6788 20.03 18.7867 18.8296C17.723 17.3891 16.3847 16.6688 14.772 16.6688H7.10291V28.2958H14.1544C15.9387 28.2958 17.4141 27.6613 18.5808 26.3923C19.6102 25.2605 20.1249 24.0429 20.1249 22.7396Z" fill="#212121"/>
</g>
</svg>
