<svg width="18" height="16" viewBox="0 0 18 16" fill="none" xmlns="http://www.w3.org/2000/svg">
<path d="M18 4.88253C18 5.15481 18 5.4224 18 5.69469C17.9906 5.73224 17.9719 5.7745 17.9719 5.81205C17.9203 6.32845 17.7845 6.82608 17.5971 7.30961C17.1426 8.47856 16.4304 9.48789 15.6011 10.4127C13.7832 12.4548 11.628 14.0792 9.31342 15.5063C9.10258 15.6378 8.89643 15.6284 8.68559 15.5016C6.72713 14.3092 4.89517 12.9525 3.25531 11.3422C2.24328 10.347 1.33433 9.26724 0.692441 7.99032C-0.282105 6.028 -0.249308 4.09854 0.926706 2.24889C1.75132 0.953189 2.93671 0.169198 4.47818 0.033056C6.11335 -0.112475 7.44867 0.52129 8.50755 1.75596C8.68559 1.96252 8.83552 2.19255 9.00888 2.42258C9.03699 2.38033 9.0651 2.34278 9.08853 2.30991C9.30405 2.03294 9.49615 1.73248 9.73979 1.48367C11.0423 0.187976 12.5885 -0.314341 14.3689 0.197365C16.1727 0.718461 17.255 1.99538 17.7845 3.76523C17.8922 4.12671 17.9297 4.50697 18 4.88253Z" fill="#E53935"/>
</svg>
