<svg width="20" height="17" viewBox="0 0 20 17" fill="none" xmlns="http://www.w3.org/2000/svg">
<path d="M18.9906 6.64989C18.9156 7.01353 18.8641 7.38183 18.7563 7.74081C18.4517 8.7851 17.8987 9.69885 17.238 10.552C16.0992 12.0205 14.7355 13.2653 13.2546 14.3702C12.3221 15.0648 11.3426 15.6896 10.3819 16.3469C10.1195 16.5287 9.87581 16.5147 9.60401 16.3469C7.47644 15.0415 5.48946 13.5683 3.76022 11.7641C2.82296 10.7851 2.00286 9.72217 1.46863 8.46342C1.24369 7.93661 1.08435 7.39115 1.02812 6.81773C1.02343 6.78509 1.00937 6.75246 1 6.71982C1 6.4401 1 6.16038 1 5.88066C1.00937 5.82938 1.02812 5.77809 1.0328 5.72681C1.15933 4.53333 1.60453 3.47506 2.41526 2.57995C3.24004 1.67085 4.26634 1.11607 5.49883 1.02283C7.13903 0.896957 8.46524 1.52633 9.51966 2.7571C9.69305 2.95757 9.83832 3.18135 9.99766 3.3958C10.171 3.1627 10.3351 2.9296 10.5178 2.71048C11.7175 1.26059 13.6623 0.645207 15.4384 1.20465C17.1958 1.75943 18.2643 3.00419 18.7844 4.7338C18.8922 5.09278 18.9297 5.4704 19 5.84336C18.9906 6.11376 18.9906 6.38416 18.9906 6.64989ZM17.9362 6.207C17.9175 5.22798 17.6269 4.31888 17.0083 3.52167C15.9961 2.21631 14.3278 1.71281 12.8516 2.2909C11.6894 2.74778 10.949 3.61025 10.5272 4.76177C10.4054 5.08811 10.2554 5.22331 9.98828 5.22331C9.73054 5.22331 9.57121 5.08811 9.45873 4.7711C9.29471 4.30956 9.06977 3.88997 8.76517 3.50303C7.29836 1.64288 4.69279 1.54498 3.15569 3.33986C1.94663 4.75245 1.73106 6.36085 2.45275 8.07647C2.90263 9.14407 3.60557 10.0485 4.38818 10.8877C6.00495 12.6219 7.88883 14.0252 9.88987 15.2886C9.9836 15.3492 10.0445 15.3259 10.1242 15.2746C11.8206 14.1977 13.4327 13.0089 14.8761 11.6103C15.729 10.7804 16.5116 9.89466 17.1208 8.86435C17.5941 8.05316 17.9315 7.19535 17.9362 6.207Z" fill="#F6CAC1" stroke="#F6CAC1"/>
</svg>
