<svg width="214" height="32" fill="none" xmlns="http://www.w3.org/2000/svg"><path d="M214 29.84c0 .514-.154.908-.463 1.183a1.577 1.577 0 01-1.081.411h-21.36c-.481 0-.875-.154-1.184-.463a1.768 1.768 0 01-.412-1.132c0-.411.137-.771.412-1.08.274-.309.669-.463 1.184-.463h2.058V3.138h-2.058c-.481 0-.875-.154-1.184-.463a1.768 1.768 0 01-.412-1.132c0-.411.137-.771.412-1.08.274-.309.669-.463 1.184-.463h20.176c.446 0 .824.137 1.132.412.309.24.464.634.464 1.183v4.784c0 .515-.155.91-.464 1.184a1.575 1.575 0 01-1.081.411h-.411c-.446 0-.824-.12-1.133-.36-.308-.274-.463-.686-.463-1.235V3.14h-12.61v10.443h6.794v-1.338c0-.514.154-.909.463-1.183a1.577 1.577 0 011.081-.412h.412c.446 0 .823.138 1.132.412.309.24.463.635.463 1.183v5.865c0 .515-.154.91-.463 1.184a1.577 1.577 0 01-1.081.411h-.411c-.447 0-.824-.12-1.133-.36-.309-.274-.463-.686-.463-1.235v-1.39h-6.794v11.576h13.742v-4.064c0-.515.155-.91.464-1.184a1.577 1.577 0 011.081-.411h.411c.446 0 .824.137 1.133.411.309.24.463.635.463 1.184v5.607zm-27.968 0c0 .514-.155.908-.463 1.183a1.577 1.577 0 01-1.081.411h-20.125c-.515 0-.909-.154-1.184-.463a1.578 1.578 0 01-.412-1.08c0-.446.12-.823.361-1.132.274-.309.686-.463 1.235-.463h2.367V3.138h-2.367c-.515 0-.909-.154-1.184-.463a1.578 1.578 0 01-.412-1.08c0-.446.12-.823.361-1.132.274-.309.686-.463 1.235-.463h9.213c.48 0 .858.171 1.132.514.309.31.464.67.464 1.08 0 .412-.138.773-.412 1.081-.275.309-.669.463-1.184.463h-3.294v25.158h12.198v-4.064c0-.515.155-.91.464-1.184a1.575 1.575 0 011.081-.411h.411c.446 0 .824.137 1.133.411.308.24.463.635.463 1.184v5.607zm-27.042 0c0 .514-.155.908-.464 1.183a1.574 1.574 0 01-1.08.411h-20.125c-.515 0-.91-.154-1.184-.463a1.573 1.573 0 01-.412-1.08c0-.446.12-.823.36-1.132.275-.309.687-.463 1.236-.463h2.367V3.138h-2.367c-.515 0-.91-.154-1.184-.463a1.573 1.573 0 01-.412-1.08c0-.446.12-.823.36-1.132.275-.309.687-.463 1.236-.463h9.213c.48 0 .858.171 1.132.514.309.31.463.67.463 1.08 0 .412-.137.773-.411 1.081-.275.309-.669.463-1.184.463h-3.294v25.158h12.198v-4.064c0-.515.155-.91.463-1.184a1.58 1.58 0 011.081-.411h.412c.446 0 .824.137 1.132.411.309.24.464.635.464 1.184v5.607zm-26.116 0c0 .514-.155.908-.463 1.183a1.577 1.577 0 01-1.081.411h-21.36c-.481 0-.875-.154-1.184-.463a1.768 1.768 0 01-.412-1.132c0-.411.137-.771.412-1.08.274-.309.669-.463 1.184-.463h2.058V3.138h-2.058c-.481 0-.875-.154-1.184-.463a1.768 1.768 0 01-.412-1.132c0-.411.137-.771.412-1.08.274-.309.669-.463 1.184-.463h20.176c.446 0 .824.137 1.132.412.309.24.464.634.464 1.183v4.784c0 .515-.155.91-.464 1.184a1.575 1.575 0 01-1.081.411h-.411c-.446 0-.824-.12-1.133-.36-.308-.274-.463-.686-.463-1.235V3.14h-12.61v10.443h6.794v-1.338c0-.514.154-.909.463-1.183a1.577 1.577 0 011.081-.412h.412c.446 0 .823.138 1.132.412.309.24.463.635.463 1.183v5.865c0 .515-.154.91-.463 1.184a1.577 1.577 0 01-1.081.411h-.411c-.447 0-.824-.12-1.133-.36-.309-.274-.463-.686-.463-1.235v-1.39h-6.794v11.576h13.742v-4.064c0-.515.155-.91.464-1.184a1.577 1.577 0 011.081-.411h.411c.446 0 .824.137 1.133.411.308.24.463.635.463 1.184v5.607zM105.626 6.38c0 .514-.154.908-.463 1.183a1.577 1.577 0 01-1.081.411h-.412c-.446 0-.823-.12-1.132-.36-.309-.274-.463-.686-.463-1.235V3.14h-6.794v25.157h3.14c.514 0 .908.154 1.183.463.275.308.412.669.412 1.08 0 .446-.138.823-.412 1.132-.24.309-.635.463-1.184.463h-9.83c-.481 0-.876-.154-1.184-.463a1.77 1.77 0 01-.412-1.132c0-.411.137-.771.412-1.08.274-.309.669-.463 1.183-.463h3.14V3.138h-6.794V6.38c0 .515-.154.91-.463 1.184-.31.274-.67.411-1.081.411h-.412c-.446 0-.823-.12-1.132-.36-.31-.274-.463-.686-.463-1.235V1.595c0-.515.154-.909.463-1.183A1.574 1.574 0 0182.927 0h21.103c.447 0 .824.137 1.133.412.309.24.463.634.463 1.183v4.784zM78.79 29.84c0 .514-.154.908-.463 1.183a1.58 1.58 0 01-1.081.411h-21.36c-.48 0-.875-.154-1.184-.463a1.77 1.77 0 01-.412-1.132c0-.411.138-.771.412-1.08.275-.309.67-.463 1.184-.463h2.059V3.138h-2.06c-.48 0-.874-.154-1.183-.463a1.77 1.77 0 01-.412-1.132c0-.411.138-.771.412-1.08.275-.309.67-.463 1.184-.463h20.176c.446 0 .824.137 1.133.412.308.24.463.634.463 1.183v4.784c0 .515-.155.91-.463 1.184-.31.274-.67.411-1.081.411h-.412c-.446 0-.824-.12-1.132-.36-.31-.274-.464-.686-.464-1.235V3.14h-12.61v10.443h6.794v-1.338c0-.514.155-.909.463-1.183.31-.274.67-.412 1.081-.412h.412c.446 0 .824.138 1.132.412.31.24.464.635.464 1.183v5.865c0 .515-.155.91-.464 1.184a1.575 1.575 0 01-1.08.411h-.412c-.446 0-.824-.12-1.133-.36-.308-.274-.463-.686-.463-1.235v-1.39h-6.794v11.576H75.24v-4.064c0-.515.154-.91.463-1.184a1.577 1.577 0 011.08-.411h.413c.446 0 .823.137 1.132.411.309.24.463.635.463 1.184v5.607zm-26.116-3.139c0 1.303-.343 2.452-1.029 3.447-.858 1.235-1.99 1.852-3.397 1.852-1.647 0-2.9-.617-3.757-1.852-.824-1.235-1.236-2.727-1.236-4.476v-4.476c0-1.063-.549-1.972-1.647-2.727-1.063-.788-2.282-1.183-3.654-1.183h-4.015v11.01h1.75c.515 0 .91.154 1.184.463.275.308.412.669.412 1.08 0 .446-.137.823-.412 1.132-.24.309-.635.463-1.184.463h-7.051c-.48 0-.875-.154-1.184-.463a1.77 1.77 0 01-.412-1.132c0-.411.137-.771.412-1.08.274-.309.67-.463 1.184-.463h1.75V3.138h-1.75c-.48 0-.875-.154-1.184-.463a1.77 1.77 0 01-.412-1.132c0-.411.137-.771.412-1.08.274-.309.67-.463 1.184-.463h9.933c2.711 0 4.993.875 6.846 2.624 1.853 1.715 2.78 3.721 2.78 6.02 0 1.302-.292 2.52-.876 3.652-.754 1.44-1.921 2.607-3.5 3.498 1.03.79 1.785 1.68 2.265 2.675.48.96.72 1.87.72 2.727v4.476c0 .755.104 1.475.31 2.16.206.687.583 1.03 1.132 1.03.343 0 .566-.24.67-.72a5.61 5.61 0 00.205-1.441c0-.515.154-.909.463-1.183.309-.275.67-.412 1.081-.412h.412c.446 0 .823.137 1.132.412.309.24.463.634.463 1.183zM44.645 8.643c0-1.303-.6-2.52-1.801-3.653-1.304-1.234-2.883-1.852-4.736-1.852H33.94v11.01h4.118c1.956 0 3.534-.566 4.735-1.698 1.235-1.166 1.853-2.435 1.853-3.807zM23.676 22.688c0 2.298-.84 4.339-2.522 6.122-1.647 1.75-3.585 2.624-5.816 2.624H1.596c-.48 0-.875-.154-1.184-.463A1.77 1.77 0 010 29.84c0-.411.137-.771.412-1.08.274-.309.669-.463 1.184-.463H3.55V3.138H1.596c-.48 0-.875-.154-1.184-.463A1.77 1.77 0 010 1.543C0 1.132.137.772.412.463.686.154 1.08 0 1.596 0h12.61c2.436 0 4.478.84 6.125 2.52 1.51 1.544 2.265 3.362 2.265 5.454 0 1.578-.515 3.001-1.545 4.27-.995 1.235-2.333 2.144-4.014 2.727 1.956.309 3.551 1.252 4.786 2.83 1.236 1.543 1.853 3.172 1.853 4.887zM19.044 7.974c0-1.063-.395-2.075-1.184-3.035-.96-1.2-2.179-1.8-3.654-1.8H7.103V13.53h5.816c1.887 0 3.414-.618 4.58-1.853 1.03-1.097 1.545-2.332 1.545-3.704zm1.08 14.766c0-1.407-.445-2.71-1.337-3.91-1.064-1.44-2.402-2.161-4.015-2.161h-7.67v11.627h7.052c1.785 0 3.26-.635 4.427-1.904 1.03-1.131 1.544-2.35 1.544-3.652z" fill="#212121"/></svg>