<svg width="72" height="72" viewBox="0 0 72 72" fill="none" xmlns="http://www.w3.org/2000/svg">
<g id="statistics/3">
<path id="vector" fill-rule="evenodd" clip-rule="evenodd" d="M46.1085 0C46.2021 0.0298643 46.2966 0.0587378 46.3913 0.0876722C46.6533 0.167693 46.9168 0.248186 47.1652 0.351425C49.0812 1.19485 50.1379 2.67083 50.1801 4.77938C50.2103 6.33566 50.2046 7.89193 50.1988 9.44821C50.1965 10.0708 50.1942 10.6933 50.1942 11.3159V12.1453H51.0959H64.6914C67.5373 12.1453 69.0166 13.6212 69.0166 16.4889V25.2042C69.0166 27.9594 67.495 29.4776 64.7619 29.4916C64.4739 29.4916 64.1772 29.474 63.8796 29.4563C63.1143 29.4108 62.3437 29.3651 61.7046 29.6181C61.1004 29.8612 60.6242 30.4003 60.1456 30.9422L60.1455 30.9422L60.1455 30.9423C59.9323 31.1837 59.7185 31.4257 59.4927 31.6423C58.4079 32.6966 57.3512 32.7809 56.4214 31.6142C55.0407 29.8711 53.3923 29.2948 51.1945 29.4494C48.3627 29.6462 46.8552 28.0016 46.8552 25.162V22.0695C46.3595 22.0695 45.8673 22.0677 45.3777 22.066C43.9196 22.0607 42.4852 22.0555 41.0507 22.0976C40.6421 22.1117 40.149 22.3506 39.8391 22.6458C39.355 23.111 38.9107 23.616 38.4665 24.121C38.2127 24.4096 37.9589 24.6982 37.6976 24.9793C36.6692 26.0898 35.3448 26.0758 34.3304 24.9653C34.2059 24.8265 34.0801 24.6878 33.954 24.5487L33.9535 24.548C33.4665 24.0108 32.9746 23.4681 32.5271 22.8989C32.034 22.2663 31.4423 22.0133 30.6392 22.0695C29.975 22.1177 29.3108 22.1039 28.6466 22.0902C28.5359 22.0879 28.4253 22.0856 28.3146 22.0836C27.6567 22.0663 26.9988 22.0384 26.3213 22.0097C25.8962 21.9917 25.4633 21.9733 25.0179 21.957C25.0179 22.332 25.0163 22.7146 25.0148 23.1018C25.0116 23.8904 25.0084 24.6981 25.0179 25.4994C25.032 26.5818 24.7361 27.5377 23.9753 28.3249C23.2004 29.1402 22.2424 29.4916 21.1294 29.5057C20.9581 29.5089 20.7861 29.5143 20.6136 29.5198L20.6135 29.5198C20.0343 29.5381 19.4506 29.5566 18.8752 29.4916C17.9877 29.4073 17.3537 29.7025 16.7901 30.3631C16.3661 30.8631 15.8719 31.3163 15.3821 31.7653L15.3821 31.7653L15.2404 31.8954C14.4373 32.6404 13.4652 32.6544 12.6481 31.9094C12.3195 31.6083 12.0068 31.2913 11.6935 30.9735L11.6934 30.9735C11.3484 30.6236 11.0025 30.2729 10.6334 29.9414C10.3798 29.7165 9.99941 29.5478 9.66128 29.5338C9.11377 29.5016 8.56165 29.5062 8.01019 29.5108H8.01018H8.01017H8.01016H8.01014H8.01012H8.01011C7.59667 29.5143 7.1836 29.5177 6.77312 29.5057C4.43441 29.4635 2.85649 27.875 2.8424 25.5275C2.82831 22.4069 2.82831 19.3003 2.8424 16.1796C2.85649 13.7618 4.42032 12.1734 6.85765 12.1734C9.97541 12.164 13.0869 12.1671 16.2005 12.1702L16.2011 12.1702C17.7584 12.1718 19.3164 12.1734 20.8758 12.1734H21.8198V11.3721V5.18704C21.8198 2.54432 23.0736 0.899649 25.6237 0.14057C25.6659 0.130027 25.7082 0.0957613 25.7505 0.0614958C25.7646 0.0500755 25.7787 0.0386562 25.7927 0.0281153H32.1326C32.6539 0.351427 33.0202 0.773141 32.7948 1.41976C32.5694 2.06639 32.034 2.15073 31.4141 2.15073C29.9066 2.13667 28.4132 2.13667 26.9057 2.15073C25.032 2.15073 23.933 3.23312 23.933 5.11675V16.9949C23.933 18.8645 25.032 19.961 26.9057 19.975C28.2442 19.9891 29.5826 20.0031 30.921 19.975C32.1749 19.9469 33.147 20.4108 33.936 21.3526C34.4962 22.0186 35.0767 22.6646 35.6773 23.3329L35.6773 23.333L35.6773 23.333L35.6773 23.333L35.6785 23.3343L35.6786 23.3344C35.7874 23.4555 35.8969 23.5773 36.007 23.7001C36.796 22.8145 37.5426 21.9852 38.3034 21.1417C38.9938 20.3686 39.8532 19.961 40.9098 19.975C42.3187 19.9891 43.7276 19.9891 45.1364 19.975C46.9538 19.961 48.0669 18.8364 48.0669 17.009V5.06052C48.0669 3.24717 46.9398 2.13667 45.1223 2.13667H37.1623C36.5705 2.13667 36.0211 2.0945 35.7675 1.43382C35.5139 0.773137 35.9225 0.393601 36.3733 0.0140619C39.6278 4.76837e-06 42.8681 0 46.1085 0ZM14.0147 30.3491C14.2795 30.0573 14.5293 29.7849 14.7689 29.5235C15.1412 29.1174 15.4893 28.7378 15.8321 28.353C16.4661 27.6501 17.255 27.3268 18.2131 27.369C18.9762 27.4041 19.7393 27.3905 20.5024 27.3768H20.5025C20.6551 27.3741 20.8077 27.3713 20.9604 27.369C22.2847 27.3549 22.9046 26.7364 22.9187 25.4291C22.9328 23.8547 22.9328 22.2944 22.9187 20.72C22.9187 20.4811 22.8623 20.1999 22.7355 20.0031C22.0874 19.0332 21.8198 17.9649 21.862 16.8122C21.8808 16.2582 21.8745 15.7043 21.8683 15.1545V15.1545C21.8651 14.8812 21.862 14.6089 21.862 14.3381C21.7898 14.3215 21.7373 14.3071 21.6959 14.2957C21.6322 14.2782 21.5947 14.2679 21.5521 14.2679C19.9084 14.2679 18.2647 14.2663 16.6211 14.2647H16.621C13.3337 14.2616 10.0463 14.2585 6.75903 14.2679C5.63194 14.2679 4.99795 14.9567 4.99795 16.1093C4.98387 19.23 4.98387 22.3366 4.99795 25.4572C4.99795 26.7083 5.66012 27.3549 6.914 27.369C7.06663 27.3713 7.21926 27.3741 7.37188 27.3768H7.37193C8.13505 27.3905 8.89816 27.4041 9.66128 27.369C10.6757 27.3268 11.4928 27.6501 12.1691 28.3952C12.5385 28.8016 12.9208 29.2018 13.35 29.6511L13.3501 29.6512L13.3505 29.6515L13.3507 29.6518C13.5596 29.8705 13.7796 30.1007 14.0147 30.3491ZM50.205 15.2428V15.2431V15.2439V15.244V15.2441C50.202 15.8502 50.1991 16.4186 50.2083 16.9809C50.2365 18.1476 49.8984 19.1878 49.2221 20.1437C49.0671 20.3546 48.9826 20.6497 48.9826 20.9028C48.9615 22.0304 48.9641 23.1502 48.9668 24.2739V24.2741C48.9676 24.6491 48.9685 25.0246 48.9685 25.401C48.9826 26.7364 49.6166 27.3549 50.9691 27.369C51.8567 27.3831 52.7584 27.3971 53.6459 27.369C54.6603 27.3268 55.4775 27.6501 56.1537 28.3952C56.4914 28.7657 56.8391 29.1262 57.2121 29.5128L57.2123 29.5131L57.2124 29.5132L57.2133 29.5141C57.4626 29.7725 57.723 30.0425 57.9993 30.335C58.746 29.5197 59.38 28.8309 60.0281 28.1562C60.5353 27.622 61.1693 27.369 61.916 27.369C62.5447 27.3784 63.1672 27.3752 63.7918 27.3721C64.1049 27.3706 64.4185 27.369 64.7337 27.369C66.3116 27.369 66.9033 26.7927 66.9033 25.2183V16.4326C66.9033 14.802 66.3398 14.2538 64.6914 14.2538H51.0395H50.2083C50.2083 14.5966 50.2066 14.9245 50.205 15.242V15.2424V15.2428ZM3.70184 71.9719C2.2648 71.4096 1.70126 70.3413 1.81396 68.8231C1.84864 68.3041 1.84064 67.7851 1.83264 67.266C1.82764 66.9416 1.82264 66.6172 1.82806 66.2929C1.85624 64.1984 2.84243 62.7364 4.77257 61.9211C6.32232 61.2605 7.88616 60.6279 9.45 60.0094C9.83039 59.8548 9.95718 59.6439 9.98536 59.2363C10.0981 57.6338 10.0135 56.1578 8.60468 55.0192C8.27446 54.7496 8.04375 54.3453 7.81663 53.9473C7.72397 53.7849 7.63192 53.6236 7.53395 53.4729C7.31216 53.1274 7.1236 52.7696 6.93478 52.4112C6.63183 51.8363 6.32821 51.26 5.88558 50.7318C5.23669 49.9474 4.98569 48.788 4.75079 47.703L4.75076 47.7029L4.7507 47.7026L4.75068 47.7025C4.72041 47.5627 4.69041 47.4242 4.65987 47.2878C4.30765 45.7415 4.39218 44.1671 4.82893 42.6349C5.04026 41.8899 5.54745 41.5244 6.13917 41.679C6.78725 41.8477 7.05494 42.396 6.8577 43.1832C6.46321 44.8138 6.51957 46.4303 6.9704 48.0891C7.00691 48.0682 7.04342 48.0513 7.07779 48.0353L7.0779 48.0353C7.13632 48.0081 7.18853 47.9839 7.224 47.9485C8.56241 46.6271 10.1403 45.6853 11.9014 45.0106C13.3385 44.4623 14.4374 43.5065 15.0854 42.0867C15.9308 40.2593 15.2122 38.952 13.2117 38.9098C12.4774 38.8895 11.7357 39.0975 10.9974 39.3045L10.9973 39.3045C10.7157 39.3835 10.4345 39.4623 10.1544 39.5283C10.0207 39.5617 9.89682 39.6297 9.77407 39.6971L9.77405 39.6971C9.68995 39.7433 9.60636 39.7892 9.52044 39.8235C8.95689 40.0625 8.50606 39.8798 8.19611 39.3878C7.90025 38.9239 8.05522 38.2773 8.5765 37.9821C10.4362 36.9418 12.4086 36.4498 14.5219 36.984C15.5645 37.237 16.3957 37.7993 17.0156 38.699C17.1283 38.8536 17.4242 39.0082 17.6073 38.9942C21.6226 38.5865 23.5527 41.7915 23.7499 44.3499C23.919 46.5428 23.3273 48.567 22.2847 50.4787C22.2687 50.5075 22.2535 50.5383 22.2381 50.5694L22.2381 50.5695C22.1858 50.6753 22.1323 50.7835 22.0452 50.8161C21.4903 51.0738 21.2928 51.5649 21.0952 52.0561C21.0018 52.2882 20.9084 52.5203 20.7772 52.7279C20.3258 53.424 19.8457 54.0962 19.3647 54.7696L19.3647 54.7696L19.3646 54.7698L19.3646 54.7699C19.02 55.2523 18.6751 55.7353 18.3399 56.2281C18.1709 56.4811 18.0018 56.7903 17.9877 57.0715C17.9774 57.2882 17.9535 57.5176 17.9294 57.7497C17.8549 58.466 17.7777 59.2083 18.0863 59.6861C18.3458 60.0789 18.9008 60.2676 19.4699 60.4611C19.7967 60.5722 20.1282 60.6849 20.4109 60.8388C21.4676 61.401 22.327 61.6259 23.3414 60.5857C23.8006 60.1275 24.4763 59.8776 25.1452 59.6303L25.1452 59.6303L25.1452 59.6302L25.1453 59.6302C25.3792 59.5437 25.6123 59.4575 25.8351 59.3628C27.4693 58.6599 29.1177 57.9852 30.7802 57.3386C31.1887 57.1699 31.3437 56.959 31.3296 56.5233C31.3168 56.0888 31.3186 55.6514 31.3203 55.2138V55.2137C31.3224 54.6885 31.3245 54.163 31.3014 53.6416C31.2874 53.3604 31.1183 53.0512 30.9351 52.8122C30.7449 52.5732 30.5371 52.3518 30.3293 52.1304L30.3293 52.1304L30.3293 52.1304L30.3293 52.1304C30.1215 51.909 29.9137 51.6876 29.7235 51.4487C29.2163 50.8161 29.2586 50.1695 29.7799 49.7759C30.3011 49.3823 30.8506 49.5088 31.3578 50.1133C31.4296 50.196 31.4993 50.2808 31.5693 50.3661C31.6779 50.4984 31.7874 50.6317 31.9072 50.7599C34.3164 53.3604 37.8104 53.3604 40.1773 50.7177C42.2483 48.4124 43.0513 45.601 43.164 42.5787C43.1781 42.2132 42.84 41.7915 42.5723 41.4823C42.0292 40.8788 41.4428 40.3076 40.8605 39.7405C40.7782 39.6604 40.696 39.5803 40.614 39.5002C40.5154 39.4018 40.3745 39.2894 40.2336 39.2613C39.5214 39.0947 38.8092 38.9457 38.0484 38.7865L38.048 38.7864L38.0452 38.7858C37.8438 38.7437 37.639 38.7009 37.43 38.6568C36.472 39.95 35.1054 40.9059 33.3443 41.1168C32.4426 41.2292 31.6677 41.412 31.0056 42.0867C30.735 42.3566 30.3647 42.527 29.9909 42.699C29.8392 42.7689 29.6868 42.8389 29.5404 42.9161C29.0895 43.155 28.8923 43.4783 29.0191 43.9985C29.1218 44.4289 29.202 44.8668 29.2817 45.3013C29.3113 45.4627 29.3408 45.6237 29.3713 45.7837C29.4981 46.5006 29.2163 47.0207 28.6246 47.1613C28.0188 47.3019 27.4834 46.9364 27.3003 46.2195C27.2932 46.1984 27.2897 46.1738 27.2862 46.1492C27.2827 46.1246 27.2791 46.1 27.2721 46.0789C27.1594 45.0387 26.7508 44.2093 25.8773 43.5065C24.6234 42.4944 24.3417 40.9762 24.3276 39.4299C24.3135 38.699 24.1726 38.0523 23.8063 37.3776C22.2425 34.524 23.7218 30.9676 26.8213 29.9696C27.2439 29.829 27.5116 29.6603 27.7229 29.2245C28.7373 27.1441 31.2733 26.4272 33.3161 27.5658C33.5415 27.6923 33.8937 27.7767 34.1192 27.6923C36.4438 26.8349 38.5148 27.4393 39.9378 29.4635C39.9586 29.4926 39.9794 29.5204 39.9976 29.5448C40.0412 29.6031 40.0703 29.6421 40.0505 29.6322C40.3434 29.6136 40.6272 29.5813 40.9033 29.5498C41.4636 29.486 41.9922 29.4257 42.5019 29.4916C44.5307 29.7868 45.8972 31.4877 45.855 33.54C45.8409 33.9618 45.9536 34.2007 46.3058 34.4397C47.7569 35.3956 48.3627 37.0543 47.8837 38.7411C47.4188 40.3999 46.7848 41.9742 45.4746 43.1832C45.2754 43.3686 45.2264 43.7663 45.1861 44.0939L45.1787 44.1531C44.8124 46.8661 43.9389 49.3823 42.2483 51.5752C42.2194 51.6122 42.1918 51.6516 42.1639 51.6914C42.0966 51.7874 42.028 51.8851 41.9383 51.9547C40.8394 52.7138 40.6281 53.7681 40.769 55.0051C40.8003 55.2606 40.7852 55.5394 40.7702 55.8141C40.7449 56.2798 40.7201 56.7339 40.924 57.0434C41.1424 57.3802 41.6337 57.5355 42.1267 57.6913C42.3333 57.7566 42.5401 57.822 42.7273 57.9008C43.9812 58.4209 45.2351 58.927 46.5735 59.4612V57.2542V48.6092C46.5735 46.2757 47.2075 44.125 48.5036 42.1851C48.9545 41.4963 49.5462 41.3276 50.0956 41.7072C50.6169 42.0726 50.7015 42.663 50.2788 43.3097C49.1517 45.0246 48.6586 46.9083 48.6868 48.9606C48.7079 51.6812 48.7053 54.4097 48.7026 57.1343V57.1356V57.1369C48.7018 58.0435 48.7009 58.9496 48.7009 59.8548C48.7009 60.8528 49.7716 61.5838 50.6592 61.2042L50.6593 61.2042L50.6595 61.2041L50.6596 61.2041L50.6597 61.204C51.6317 60.7964 52.6036 60.3889 53.5896 60.0094C53.9418 59.8688 54.0827 59.7001 54.0968 59.2925C54.1532 58.3226 53.9418 57.5494 53.2656 56.7622C51.6313 54.8224 50.6733 52.5451 50.5183 49.9727C50.4479 48.8762 50.7156 48.567 51.8004 48.328C52.0751 48.2648 52.3498 48.2074 52.6246 48.1501L52.6246 48.1501C53.0825 48.0546 53.5403 47.959 53.9982 47.836C56.7737 47.0769 58.6052 45.3198 59.4505 42.5787C59.8731 41.2152 60.4226 40.9762 61.6624 41.6931C63.9589 43.0145 65.0718 45.109 65.4663 47.6252C66.044 51.3081 64.8323 54.4569 62.4655 57.212C61.9532 57.7962 61.9995 58.4113 62.0459 59.0286V59.0287V59.0287V59.0288C62.0621 59.2433 62.0782 59.4581 62.071 59.672C62.071 59.7423 62.2119 59.8548 62.3105 59.8969C63.399 60.3533 64.4935 60.8037 65.6016 61.2597L65.602 61.2599C66.2005 61.5062 66.8029 61.7541 67.4106 62.0055C67.4145 61.9268 67.4184 61.8558 67.4221 61.7904V61.7903V61.7903V61.7902C67.4314 61.622 67.4387 61.4904 67.4387 61.3589C67.4387 59.9433 67.4403 58.5292 67.4419 57.1157V57.1142V57.1126V57.1111C67.445 54.2872 67.4481 51.4653 67.4387 48.6373C67.4246 43.9282 64.2265 40.1187 59.5914 39.3034C57.7458 38.9801 55.9424 39.2191 54.2236 39.9922C54.1655 40.0186 54.1094 40.0469 54.0537 40.075L54.0536 40.075L54.0536 40.0751C53.9609 40.1219 53.8696 40.1679 53.7728 40.2031C53.1529 40.442 52.6034 40.2452 52.3498 39.697C52.0962 39.1628 52.2935 38.6006 52.8993 38.2913C54.6463 37.4057 56.5201 36.9981 58.4784 37.0824C64.7196 37.3495 69.5238 42.3116 69.552 48.567C69.5681 51.3539 69.5658 54.1363 69.5635 56.9193V56.9196V56.9198V56.92V56.9229C69.5618 59.0096 69.5601 61.0966 69.5661 63.1863C69.5661 63.4641 69.6381 63.7354 69.7107 64.009C69.7446 64.1369 69.7787 64.2653 69.8056 64.3952C69.8404 64.5686 69.8794 64.7431 69.9185 64.9183C70.0222 65.3823 70.1272 65.8516 70.1578 66.321C70.1848 66.7244 70.1763 67.1277 70.1678 67.5311C70.1585 67.9711 70.1493 68.4112 70.186 68.8512C70.2987 70.3694 69.7352 71.4377 68.2981 72C46.7144 71.9719 25.2152 71.9719 3.70184 71.9719ZM45.1689 39.923L45.169 39.9228C45.416 39.2706 45.6625 38.6197 45.8268 37.9539C46.0663 36.9418 45.4605 36.1265 44.432 35.8735C43.4176 35.6205 43.1781 35.1566 43.5304 34.1867C43.8826 33.2308 43.629 32.3452 42.8682 31.8251C42.1074 31.305 41.1916 31.4034 40.4309 32.0922C39.5292 32.9075 38.7543 32.6545 38.4585 31.4596C37.9935 29.5619 36.0775 28.8028 34.4573 29.8852C33.6542 30.4194 33.3302 30.3913 32.6258 29.7165C31.4846 28.606 29.7376 29.0699 29.3995 30.6162C29.2304 31.4174 28.8218 31.7126 28.0188 31.811C25.6519 32.1062 24.4403 34.7771 25.821 36.7029C26.2295 37.2792 26.4268 37.8274 26.3704 38.5162C26.3422 38.9379 26.3563 39.3596 26.3986 39.7814C26.4831 40.5685 26.624 41.3557 27.1735 41.8759C27.3779 41.755 27.5804 41.6381 27.7805 41.5226C28.325 41.2084 28.8524 40.904 29.3572 40.5545C29.6953 40.3155 30.0194 39.9922 30.2307 39.6267C30.5547 39.0785 30.9633 38.8817 31.5691 38.966C33.7529 39.2753 35.2322 38.4459 36.1197 36.4499C36.5706 35.4237 37.3877 35.3112 38.1344 36.1687C38.8107 36.9418 39.6137 37.2652 40.6422 37.0262C41.5157 36.8294 41.8115 37.0543 42.206 37.9118C42.4314 38.4038 42.7696 38.8817 43.164 39.2613C43.4869 39.5833 43.852 39.8572 44.2474 40.1539L44.2475 40.154L44.2476 40.154L44.2476 40.1541C44.4562 40.3105 44.6732 40.4733 44.897 40.6529C44.9849 40.4088 45.0769 40.1658 45.1689 39.923ZM52.5752 50.2679C53.0402 52.8965 54.125 55.0754 56.1115 56.7482C57.4922 57.9149 58.6052 57.929 59.9295 56.706C62.5218 54.3022 63.8743 51.3784 63.2967 47.7798C63.0572 46.2897 62.4655 44.9684 61.1975 43.9422C59.5632 47.7517 56.5905 49.7197 52.5752 50.2679ZM7.97674 65.0803L7.97695 65.0806L7.977 65.0807L7.97796 65.082C9.12279 66.6129 10.2439 68.1121 11.3801 69.5963C11.5069 69.7649 11.8028 69.8493 12.0282 69.8633C13.2962 69.8915 14.5642 69.9055 15.8181 69.8633C16.1139 69.8493 16.4943 69.6806 16.6915 69.4698C17.9736 68.0359 19.2416 66.6021 20.4532 65.1121C20.7031 64.8052 20.8743 64.4264 21.0518 64.0337L21.0518 64.0336C21.1345 63.8506 21.2186 63.6646 21.3126 63.4815C20.8884 63.3089 20.4823 63.1423 20.0882 62.9807C19.1342 62.5894 18.251 62.2271 17.3537 61.879C17.1987 61.8227 16.9451 61.879 16.8043 61.9774C14.8882 63.2144 12.9862 63.2144 11.0702 61.9774C10.9152 61.879 10.6616 61.8227 10.5207 61.879C9.52202 62.2413 8.53245 62.6493 7.48574 63.0808L7.48513 63.0811L7.48506 63.0811L7.48212 63.0823L7.47273 63.0862C7.22428 63.1886 6.9726 63.2924 6.71681 63.3971C7.14039 63.9619 7.55898 64.5217 7.97444 65.0772L7.97468 65.0776L7.97674 65.0803ZM13.8327 46.3321L13.8327 46.3321L13.8326 46.3322C13.1862 46.6168 12.5137 46.9128 11.8873 47.2878C10.7885 47.9344 9.74599 48.6934 8.70351 49.4524L8.7033 49.4526C8.53424 49.5791 8.40744 49.9446 8.46379 50.1554C9.05551 52.3483 10.2249 54.1898 12.0846 55.5111C13.4089 56.453 14.4515 56.453 15.7758 55.5111C17.4242 54.3585 18.4526 52.7419 19.1993 50.9005C19.5234 50.1273 19.3966 49.6353 18.7203 49.1293C17.8729 48.4863 17.0421 47.8158 16.207 47.1419L16.2068 47.1417L16.2066 47.1415C15.7091 46.74 15.21 46.3372 14.705 45.9383C14.4246 46.0716 14.1315 46.2006 13.8329 46.3321L13.8328 46.3321L13.8327 46.3321ZM41.7693 59.7845C41.6726 59.7435 41.5789 59.7033 41.4874 59.6642C41.0454 59.4748 40.6562 59.3081 40.2477 59.18C40.0646 59.1238 39.7828 59.1519 39.6278 59.2644C37.1341 60.9372 34.8236 60.9371 32.3722 59.2784C32.2313 59.18 31.9777 59.1097 31.8227 59.1519C31.4362 59.2838 31.0571 59.4451 30.6587 59.6145L30.6587 59.6145L30.6586 59.6145L30.6583 59.6146L30.6577 59.6149C30.5046 59.68 30.3487 59.7463 30.1884 59.8126C32.4003 62.8489 33.6824 66.1804 34.1192 69.8352H37.7963C38.2612 66.1242 39.5574 62.8067 41.7693 59.7845ZM39.9518 69.8212H48.8418C48.8418 69.2924 48.8464 68.7672 48.851 68.2448L48.851 68.2441V68.244V68.244V68.2439C48.8625 66.9471 48.8738 65.6675 48.8136 64.3952C48.7572 63.2706 48.0669 62.4413 47.0384 61.9633C46.1086 61.5416 45.1506 61.148 44.1925 60.7825C44.0235 60.7263 43.6853 60.8106 43.5726 60.9512C41.5579 63.5799 40.3745 66.5318 39.9518 69.8212ZM31.9636 69.8352C31.6114 66.7005 30.3575 63.5518 28.5401 61.1058C28.5243 61.0845 28.5089 61.0632 28.4937 61.0421L28.493 61.0411L28.4927 61.0407L28.4925 61.0403C28.3177 60.798 28.1661 60.5878 27.7652 60.7685C27.2123 61.0231 26.6491 61.2521 26.088 61.4802L26.088 61.4802L26.0879 61.4803L26.0873 61.4805C25.7194 61.6301 25.3523 61.7793 24.9897 61.9352C24.0176 62.3569 23.2991 63.116 23.2287 64.1422C23.1499 65.4589 23.1675 66.7757 23.1852 68.1021C23.1928 68.6731 23.2005 69.2459 23.2005 69.8212C26.116 69.8352 29.0175 69.8352 31.9612 69.8352H31.9636ZM61.9442 62.0336C61.9019 64.845 61.606 67.4455 60.2113 69.8633H67.4387C67.8332 69.8633 67.9882 69.6947 67.9882 69.3151C67.9829 68.8937 67.9836 68.4723 67.9842 68.0509V68.0501C67.9853 67.3472 67.9864 66.6443 67.96 65.9414C67.9318 65.1402 67.5374 64.4514 66.8329 64.114C65.7959 63.6293 64.7403 63.194 63.6456 62.7426L63.6452 62.7425C63.0892 62.5132 62.5231 62.2798 61.9442 62.0336ZM59.8591 59.2503C58.577 59.8829 57.3654 59.8126 56.1115 59.2784C56.1301 59.8576 56.1349 60.4352 56.1396 61.0099V61.0101V61.0102V61.0104C56.1638 63.9228 56.1874 66.7605 57.9994 69.3432C59.806 66.7277 59.8213 63.8752 59.837 60.9511C59.84 60.3865 59.8431 59.8191 59.8591 59.2503ZM50.9832 63.3128V69.8352H55.7593C54.3363 67.4315 54.1109 64.8028 54.0123 62.0617C52.8993 62.5115 51.8708 62.9332 50.9832 63.3128ZM20.9604 48.2015C21.4676 46.9785 21.7071 45.7556 21.5944 44.4764C21.4253 42.41 19.9742 41.0043 18.1286 41.0605C17.6778 41.0746 17.4664 41.2152 17.3678 41.679C17.241 42.2413 17.0438 42.8036 16.7902 43.3237L16.7569 43.3927C16.2803 44.3821 16.2332 44.4799 17.1424 45.2495C17.9632 45.9179 18.8093 46.5611 19.6722 47.217C20.0979 47.5405 20.5276 47.8672 20.9604 48.2015ZM38.6134 54.3022C36.8242 54.8926 35.1476 54.8786 33.4006 54.3163C33.4006 54.5703 33.3997 54.8179 33.3988 55.0611C33.3962 55.7732 33.3937 56.4465 33.4147 57.1277C33.4147 57.2964 33.5838 57.5072 33.7388 57.6197C34.9786 58.6177 37.0073 58.6177 38.2612 57.6197C38.4303 57.4932 38.5993 57.2542 38.6134 57.0715C38.632 56.4889 38.6261 55.9063 38.6199 55.2917V55.2916C38.6167 54.972 38.6134 54.6437 38.6134 54.3022ZM4.65987 64.1843C4.5697 64.3912 4.47231 64.5823 4.38018 64.7631C4.18441 65.1473 4.01235 65.4849 3.98361 65.829C3.88526 66.9926 3.91303 68.1562 3.94113 69.3338V69.3338L3.94135 69.3432C3.94135 69.5119 4.20903 69.8352 4.36401 69.8352C5.53175 69.8689 6.6995 69.8667 7.93856 69.8645H7.93888C8.25441 69.8639 8.57458 69.8633 8.90054 69.8633L8.68191 69.5696C7.33972 67.7663 6.06318 66.0512 4.65987 64.1843ZM12.0846 57.9008V59.0957C12.0846 60.164 12.3804 60.6138 13.4653 60.6701C14.0179 60.706 14.5808 60.5375 15.1278 60.3738L15.1278 60.3738L15.1282 60.3737L15.1284 60.3736C15.2226 60.3454 15.3164 60.3174 15.4095 60.2905C15.5785 60.2343 15.7758 59.925 15.7899 59.7142C15.8288 59.3157 15.8207 58.9171 15.8119 58.4907C15.808 58.3004 15.804 58.1046 15.804 57.9008C14.5501 58.4209 13.3666 58.435 12.0846 57.9008ZM20.9745 67.7548C20.3264 68.4998 19.791 69.1183 19.1993 69.8212H20.9745V67.7548ZM42.4314 13.6493C43.2767 12.5529 43.8262 11.3299 43.8543 10.2054C43.8684 6.25535 39.7827 3.93594 36.5564 5.79146C36.1479 6.01638 35.8943 6.01638 35.4998 5.77741C34.3868 5.10267 33.1611 4.94804 31.9072 5.27135C28.5541 6.15694 27.1734 9.91016 29.1036 13.0027C30.611 15.4346 32.9216 16.9668 35.4434 18.1757C35.7957 18.3303 36.3733 18.3022 36.7255 18.1195C38.9233 17.023 40.9098 15.6173 42.4314 13.6493ZM31.4704 12.7216C30.8083 11.9344 30.3152 11.0769 30.3152 9.89611C30.3856 8.86995 30.9069 8.02653 31.9072 7.53454C32.8652 7.0566 33.8232 7.155 34.6967 7.77351C35.9084 8.61693 36.1479 8.63098 37.3595 7.77351C38.3316 7.08471 39.5573 7.0566 40.5153 7.71727C41.5297 8.40607 41.9806 9.53063 41.5861 10.7114C41.3747 11.358 41.0225 11.9906 40.5999 12.5388C39.4587 14.0289 37.923 15.0691 36.3028 15.9828C36.162 16.0671 35.8943 16.0671 35.7393 15.9828C34.1332 15.1394 32.6398 14.1273 31.4704 12.7216ZM12.2959 17.023C13.0341 17.4908 13.8924 17.3525 14.7958 17.207C15.1682 17.1469 15.5483 17.0857 15.9308 17.0652C18.2554 16.9246 20.0165 19.3846 19.2134 21.6197C18.9175 22.435 18.4244 23.2503 17.8045 23.8407C16.8747 24.7122 15.7899 25.4432 14.7191 26.1179C14.381 26.3288 13.7611 26.3709 13.3948 26.2163C11.8028 25.4853 10.3798 24.5013 9.35137 23.0535C8.61877 22.0132 8.28064 20.8746 8.64694 19.6095C9.0696 18.0913 10.5066 17.009 12.2959 17.023ZM17.1819 20.0708L17.1819 20.0708C16.986 19.7891 16.797 19.5174 16.5507 19.3284C16.0857 18.9629 15.5081 19.0613 15.0432 19.4268C14.3106 20.0172 13.6202 20.0031 12.8876 19.4268C12.3804 19.0191 11.7887 19.0191 11.2674 19.4127C10.7039 19.8344 10.4644 20.3967 10.718 21.0855C10.8448 21.4369 10.9997 21.8165 11.2533 22.0554C12.0141 22.7442 12.8313 23.3627 13.6484 23.9812C13.7893 24.0796 14.1274 24.0796 14.2683 23.9672C14.3722 23.8863 14.4763 23.8057 14.5805 23.7251L14.5805 23.7251C15.3093 23.1609 16.0382 22.5966 16.6915 21.957C16.9053 21.7252 17.0455 21.4138 17.2051 21.0593C17.2875 20.8764 17.375 20.682 17.4805 20.481C17.3744 20.3475 17.2773 20.208 17.1819 20.0708ZM58.9724 17.1615C57.9917 17.3072 57.0103 17.4529 55.9706 16.8262C55.7485 16.9285 55.5186 17.0218 55.2887 17.115C54.7606 17.3292 54.2329 17.5432 53.801 17.8664C52.3076 19.0191 52.054 20.959 53.0824 22.6599C54.0968 24.3467 55.6607 25.4151 57.4076 26.2163C57.7599 26.3709 58.3798 26.2866 58.732 26.0757C59.7041 25.4853 60.7044 24.8668 61.5074 24.0796C62.1978 23.3909 62.8318 22.5193 63.1699 21.6197C64.0152 19.3846 62.2119 16.8825 59.8591 17.0511C59.5625 17.0739 59.2675 17.1177 58.9724 17.1615ZM59.1546 19.3424C60.0422 18.7239 61.2679 19.4549 61.2961 20.7481C61.2556 20.825 61.2162 20.9252 61.1722 21.0369C61.0635 21.3134 60.927 21.6606 60.6762 21.9008C59.964 22.5983 59.1654 23.2218 58.3728 23.8406C58.3187 23.8828 58.2647 23.925 58.2107 23.9672C58.098 24.0515 57.8444 24.0937 57.7176 24.0234C56.6187 23.3908 55.562 22.688 54.8858 21.5634C54.435 20.8184 54.5054 20.1015 55.0267 19.5673C55.5198 19.0753 56.196 18.9207 56.7455 19.3565C57.5908 20.0031 58.2952 19.9469 59.1546 19.3424Z" fill="#F6CAC1"/>
</g>
</svg>
