<svg width="24" height="24" viewBox="0 0 24 24" fill="none" xmlns="http://www.w3.org/2000/svg">
<g id="icon/heart" clip-path="url(#clip0_69_752)">
<path id="Vector" d="M21 8.88253C21 9.15481 21 9.4224 21 9.69469C20.9906 9.73224 20.9719 9.7745 20.9719 9.81205C20.9203 10.3285 20.7845 10.8261 20.5971 11.3096C20.1426 12.4786 19.4304 13.4879 18.6011 14.4127C16.7832 16.4548 14.628 18.0792 12.3134 19.5063C12.1026 19.6378 11.8964 19.6284 11.6856 19.5016C9.72713 18.3092 7.89517 16.9525 6.25531 15.3422C5.24328 14.347 4.33433 13.2672 3.69244 11.9903C2.71789 10.028 2.75069 8.09854 3.92671 6.24889C4.75132 4.95319 5.93671 4.1692 7.47818 4.03306C9.11335 3.88752 10.4487 4.52129 11.5075 5.75596C11.6856 5.96252 11.8355 6.19255 12.0089 6.42258C12.037 6.38033 12.0651 6.34278 12.0885 6.30991C12.3041 6.03294 12.4962 5.73248 12.7398 5.48367C14.0423 4.18798 15.5885 3.68566 17.3689 4.19737C19.1727 4.71846 20.255 5.99538 20.7845 7.76523C20.8922 8.12671 20.9297 8.50697 21 8.88253Z" fill="white"/>
</g>
<defs>
<clipPath id="clip0_69_752">
<rect width="24" height="24" fill="white"/>
</clipPath>
</defs>
</svg>
