<svg width="24" height="24" viewBox="0 0 24 24" fill="none" xmlns="http://www.w3.org/2000/svg">
<g id="icon/mail_outline">
<path id="mail_outline" d="M12 11.0156L20.0156 6H3.98438L12 11.0156ZM20.0156 18V8.01562L12 12.9844L3.98438 8.01562V18H20.0156ZM20.0156 3.98438C20.5469 3.98438 21 4.1875 21.375 4.59375C21.7812 5 21.9844 5.46875 21.9844 6V18C21.9844 18.5312 21.7812 19 21.375 19.4062C21 19.8125 20.5469 20.0156 20.0156 20.0156H3.98438C3.45312 20.0156 2.98438 19.8125 2.57812 19.4062C2.20312 19 2.01562 18.5312 2.01562 18V6C2.01562 5.46875 2.20312 5 2.57812 4.59375C2.98438 4.1875 3.45312 3.98438 3.98438 3.98438H20.0156Z" fill="#FFF1EE"/>
</g>
</svg>
