<svg width="24" height="24" viewBox="0 0 24 24" fill="none" xmlns="http://www.w3.org/2000/svg">
<g id="picto/tiktok_small">
<path id="Vector" d="M9.88112 22C9.45212 21.9322 9.01808 21.9009 8.59413 21.8018C6.2069 21.2386 4.34456 19.0952 4.04678 16.5919C3.64807 13.2542 5.83847 10.2399 9.06855 9.69231C9.69438 9.58801 10.3202 9.57236 10.9561 9.68709C10.9561 10.7823 10.9561 11.867 10.9561 12.9726C10.7896 12.9413 10.6331 12.9048 10.4716 12.8787C8.91714 12.6441 7.43332 13.7705 7.23144 15.3351C7.01442 17.0196 8.09953 18.5007 9.69943 18.7249C11.3094 18.9492 12.9497 17.6558 12.9346 15.7001C12.9144 13.3273 12.9346 10.9544 12.9346 8.58149C12.9346 6.47458 12.9346 4.37288 12.9346 2.26597C12.9346 2.18253 12.9346 2.09909 12.9346 2C13.9894 2 15.0291 2 16.0637 2C16.1091 2.33377 16.1394 2.67275 16.205 3.0013C16.6491 5.23338 18.562 6.90222 20.7625 6.98044C20.9542 6.98566 21.0047 7.03781 20.9997 7.23598C20.9896 8.15906 20.9946 9.08735 20.9946 10.0104C20.9946 10.0782 20.9946 10.1512 20.9946 10.2399C19.1726 10.2295 17.5627 9.6558 16.094 8.52934C16.094 8.63364 16.094 8.70143 16.094 8.77445C16.099 11.0795 16.1041 13.3898 16.1142 15.6949C16.1192 16.9518 15.8164 18.1252 15.13 19.1682C14.0096 20.8683 12.45 21.8018 10.4615 21.9687C10.3909 21.9739 10.3253 21.9896 10.2596 22C10.1335 22 10.0073 22 9.88112 22Z" fill="white"/>
</g>
</svg>
